<svg width="49" height="49" viewBox="0 0 49 49" fill="none" xmlns="http://www.w3.org/2000/svg">
<g clip-path="url(#clip0_2_794)">
<mask id="mask0_2_794" style="mask-type:luminance" maskUnits="userSpaceOnUse" x="0" y="0" width="49" height="49">
<path d="M48.6562 0.5H0.65625V48.5H48.6562V0.5Z" fill="white"/>
</mask>
<g mask="url(#mask0_2_794)">
<path d="M36.381 43.3642C30.9205 59.7129 16.3553 64.7551 8.65442 44.4541C7.59203 41.6633 10.3608 40.6285 12.2985 39.3954C13.6251 38.5532 14.3241 37.8266 14.2416 37.0725C13.8563 33.5275 12.2104 23.6523 12.2104 23.6523L12.0452 23.333C12.0452 23.333 12.0838 23.245 11.9241 23.3991C11.759 23.5642 11.3792 25.2817 9.88744 25.2817C8.53882 25.2817 7.17919 24.6817 6.52965 20.5312C6.28194 19.0285 6.41405 15.0872 8.08744 14.3716C8.77552 14.0798 9.40854 13.9752 10.0251 14.3275C10.6471 14.6798 9.30946 13.1165 16.1902 7.39176C20.6599 3.65965 27.7223 3.11469 30.5737 3.74772C33.4251 4.38075 36.2709 5.77341 37.5315 8.72937C39.0618 12.3074 36.1058 15.0211 36.7608 23.1789C36.6397 26.1294 36.8049 32.6028 28.6911 34.7716C27.1498 35.1844 27.6287 37.4358 29.9407 37.9863C33.6287 39.1422 36.381 41.9661 36.381 43.3752" fill="white"/>
<path fill-rule="evenodd" clip-rule="evenodd" d="M36.381 17.9606L36.3865 17.8835C36.6122 15.8798 36.8379 13.9367 37.8783 12.1918C38.2361 12.434 38.192 12.7422 38.0819 13.0285C36.9865 15.8468 37.0911 18.7753 37.1902 21.7037L37.2122 22.4743C37.3278 26.1294 36.414 29.4542 33.981 32.245C33.1333 33.2138 32.0104 33.8854 30.8709 34.4633C29.6929 35.0688 29.4452 35.5698 29.814 36.8633L29.8581 37.0065C29.9351 37.2211 30.0122 37.4413 29.803 37.656C29.5553 37.9092 29.2801 37.8376 28.9884 37.7551L28.9553 37.7496C26.2261 36.9854 23.667 35.7095 21.414 33.9899C21.0838 33.7477 20.8196 33.423 20.5608 33.1037L20.5443 33.0817C20.4067 32.9165 20.3792 32.6523 20.5718 32.5092C20.7535 32.3716 20.8911 32.4817 21.0507 32.6083L21.1058 32.6578C22.3078 33.6331 23.7666 34.2392 25.3058 34.4028C26.0434 34.4798 26.77 34.4523 27.5076 34.4248C27.915 34.4083 28.3223 34.3918 28.7351 34.3973C29.2966 34.3973 29.7645 34.1386 30.2049 33.8909L30.359 33.8028C31.8893 32.9496 33.348 31.9973 34.3333 30.4615C35.2196 29.0854 35.759 27.5881 36.0728 26.0083C36.4691 24.0211 36.4361 22.0065 36.403 19.9643C36.3865 19.3037 36.3755 18.6321 36.3755 17.9606H36.381ZM8.67093 13.8101C9.87643 13.7165 10.5425 14.4266 11.1095 15.2578C11.7814 16.2734 12.2039 17.4333 12.3425 18.6431C12.37 18.8468 12.3975 19.0615 12.2764 19.2652C12.0287 19.2982 12.0067 19.1 12.0012 18.9569C11.9737 17.8175 11.4673 16.8266 10.9608 15.8688C10.5975 15.1808 10.0691 14.5147 9.2324 14.3496C8.28561 14.1569 7.41588 15.0101 6.98652 16.122C6.18836 18.1918 6.32597 20.2285 7.06359 22.2321C7.38285 23.1074 7.78469 23.9991 8.59386 24.6101C9.40854 25.2321 10.3939 25.122 10.9939 24.2964L11.104 24.1587C11.214 24.0156 11.3241 23.878 11.3792 23.7184C11.4948 23.3991 11.6764 23.1019 12.0012 23.1459C12.3755 23.2009 12.4416 23.6028 12.4801 23.9165C12.8216 26.8002 13.2253 29.6761 13.6911 32.5422L14.0159 34.678C14.159 35.6193 14.3241 36.9734 14.214 37.5459C14.2069 37.586 14.2014 37.6264 14.1975 37.667C14.1755 37.8211 14.1645 37.9422 13.9663 37.9698C13.6966 38.0138 13.581 37.8597 13.5425 37.6175C13.4159 36.6817 13.3774 36.3184 13.3223 34.8872C13.2728 33.5 13.014 32.1349 12.7498 30.7642L12.4746 29.278C12.1884 27.5826 11.9076 25.8652 11.8801 23.9386L11.77 24.1037C11.3517 24.7257 11.0159 25.2321 10.4214 25.4248C9.98008 25.5939 9.49646 25.6184 9.04035 25.4947C8.58423 25.371 8.17922 25.1056 7.88377 24.7367C7.10811 23.8607 6.56322 22.8049 6.29845 21.6652C5.83607 19.7936 5.7535 17.9716 6.34799 16.1276C6.63423 15.2413 7.65258 13.667 8.67093 13.8156V13.8101ZM10.5755 20.8285C10.8177 21.0046 11.0379 21.1587 11.2361 20.5312C11.1755 18.2083 10.4269 16.722 9.26542 16.6615C9.88194 17.4652 10.4764 18.2468 10.5315 19.3312C10.3024 19.2143 10.1015 19.049 9.94249 18.8468C9.8324 18.7257 9.7223 18.6046 9.58469 18.5165L9.41955 18.3844C9.15533 18.1863 8.88561 17.9771 8.43974 18.1367C8.64891 18.456 8.93515 18.6872 9.22689 18.9074C9.55717 19.1661 9.88744 19.4193 10.0856 19.8156C9.50212 20.2395 9.24891 20.7899 9.55166 21.4615C9.81588 22.0395 10.2067 22.5184 10.9774 22.5514C10.9443 22.2046 10.7186 21.9514 10.4929 21.7037C10.2177 21.4065 9.959 21.1202 10.0801 20.6798C10.2562 20.5973 10.4214 20.7184 10.5755 20.8285Z" fill="black"/>
<path d="M58.8507 73.2927L-13.1768 73.3423C-13.1768 73.3423 -9.16393 57.9129 -8.09604 56.1404C-7.02265 54.3734 -2.72357 48.412 -2.77311 47.3991C-2.82265 46.3863 -2.69054 42.7863 -1.96393 41.3661C-1.23733 39.9349 1.0746 37.9918 1.97735 37.8432C2.8801 37.7056 5.92414 37.5679 7.82322 37.089C9.7223 36.6156 11.4783 36.0267 13.4104 36.0267C13.7241 36.0267 13.4214 36.7147 13.4214 36.7147C13.4214 36.7147 13.5205 43.4468 22.4929 43.8707C29.181 44.1845 31.3939 37.3973 31.3939 37.3973C31.3939 37.3973 29.9241 36.0872 30.37 36.0542C35.6324 35.6028 38.3902 36.7808 39.9865 37.089C41.4618 37.3753 42.6948 37.3753 44.17 38.4211C45.8599 39.6156 46.7296 42.3294 48.6232 46.4854C50.7865 51.2523 59.3076 65.7129 58.8507 73.3257" fill="white"/>
<path fill-rule="evenodd" clip-rule="evenodd" d="M41.6929 73.4633C41.6489 72.5275 41.6324 71.5918 41.6104 70.6615C41.5663 68.6193 41.5223 66.5716 41.2581 64.5239C41.0159 62.6523 40.7351 60.7808 40.4324 58.9147C39.9032 55.8555 39.2864 52.812 38.5829 49.7881C38.3517 48.7477 37.9498 47.7294 37.5205 46.7441C37.2067 46.0285 36.948 45.2908 36.6838 44.5532C36.381 43.711 36.0783 42.8688 35.704 42.0542C35.6379 41.911 35.5553 41.7789 35.4728 41.6468C35.3076 41.3991 35.1425 41.1349 35.0599 40.7441C32.4452 45.8853 28.4324 48.5496 22.7737 48.5771C17.203 48.5991 13.0856 46.034 10.0801 41.4046C9.60671 41.7899 9.39203 42.3404 9.19937 42.8358L9.1223 43.0175C8.09845 45.5441 7.14065 48.0817 6.8379 50.845C6.66726 52.4413 6.41955 54.0376 6.17735 55.623L6.07827 56.2505C5.69845 58.7386 5.36267 61.2431 5.18652 63.7587C4.94983 66.9514 4.70212 70.1441 4.44891 73.4028C4.19019 73.4633 3.94799 73.4633 3.64524 73.4633C3.81543 72.0971 3.91098 70.7226 3.93148 69.3459C4.01955 66.6101 4.33331 63.8964 4.64708 61.1881L4.89478 58.9587C5.05992 57.4175 5.2801 55.8762 5.50579 54.3459C5.72597 52.8321 5.94616 51.3184 6.1113 49.7936C6.38102 47.3716 7.3168 45.1037 8.31313 42.8798L8.35717 42.7697C8.92964 41.4872 9.50212 40.1991 10.4214 39.1092C11.1315 38.267 11.9351 37.5184 12.8874 36.9624C13.6526 36.5165 13.9003 36.6101 14.159 37.4578C14.6874 39.1918 15.6067 40.678 17.0929 41.6908C19.4489 43.2872 21.992 44.0138 24.8709 43.1716C26.8801 42.5826 28.537 41.5697 29.7315 39.8578C30.1939 39.1973 30.6122 38.4817 30.7498 37.656C30.41 37.5435 30.0756 37.4149 29.748 37.2707V37.2652C29.5829 37.1881 29.3792 37.1 29.4673 36.8523C29.5333 36.6652 29.6874 36.5275 29.8966 36.5606C31.7186 36.8083 33.4471 37.2046 34.6526 38.823C35.7571 40.3236 36.6362 41.9778 37.2618 43.7331L37.6746 44.856C38.3682 46.711 39.0563 48.5661 39.5682 50.4817C39.7663 51.2413 39.9205 52.0064 40.0691 52.7771L40.2673 53.7624L40.5535 55.067C40.7737 56.0688 40.9939 57.0652 41.1535 58.078C41.2636 58.7716 41.3737 59.4652 41.4948 60.1587C41.8251 62.1294 42.1663 64.1055 42.2544 66.1147C42.2984 67.1055 42.3645 68.0964 42.4416 69.0872C42.5021 69.9129 42.5627 70.7441 42.6067 71.5808C42.6287 72.0321 42.5847 72.489 42.5351 72.9569L42.4911 73.4303C42.2269 73.4633 41.9572 73.4798 41.6874 73.4688L41.6929 73.4633ZM31.504 38.2064C31.0636 39.2248 30.6342 40.2431 29.8911 41.0908C28.003 43.2431 25.559 44.2285 22.7682 44.311C20.8966 44.3661 19.0526 43.9808 17.4287 42.9349C15.8599 41.922 14.5113 40.6945 13.8507 38.8615L13.7847 38.6523C13.6746 38.3331 13.5645 38.0028 13.3113 37.7716C12.5847 37.9367 12.392 38.3936 12.5076 39.0376L12.5572 39.3569C12.5847 39.5771 12.6122 39.7973 12.6893 40.0009C13.3774 41.9496 14.726 43.3808 16.4489 44.4266C17.803 45.2523 19.2783 45.7918 20.8966 45.9954C24.2159 46.4083 27.3095 45.9679 30.0507 43.9147C30.8639 43.3395 31.5462 42.5987 32.0528 41.7411C32.5594 40.8835 32.8789 39.9284 32.9902 38.9386C33.0838 38.1129 32.5939 37.7275 31.6306 37.9092L31.504 38.2064ZM11.6214 39.0762C12.7223 43.5899 15.8599 45.7587 20.0819 46.7055C22.2287 47.245 24.2654 47.1569 26.3076 46.623C28.581 46.034 30.5792 45.0101 32.0764 43.1551C32.9902 42.0101 33.6673 40.7496 33.6893 39.2138C34.515 39.6431 34.5975 39.9404 34.0471 40.9753C32.8668 43.2699 31.0108 45.1471 28.7296 46.3532C26.1755 47.6743 23.4232 48.0266 20.5498 47.5918C17.5663 47.1459 15.1168 45.7367 12.97 43.7165C12.2289 42.9639 11.5786 42.127 11.0324 41.223L10.6581 40.656C10.5095 40.4358 10.603 40.2597 10.7517 40.089C11.0406 39.7487 11.3305 39.4093 11.6214 39.0707V39.0762Z" fill="black"/>
<path fill-rule="evenodd" clip-rule="evenodd" d="M-1.71072 73.4633C-1.45751 72.6156 -1.36393 71.7404 -1.27036 70.8597C-1.22632 70.4193 -1.17678 69.9789 -1.11072 69.5386L-0.962098 68.5477C-0.769437 67.2156 -0.576777 65.8835 -0.27953 64.5624L-0.00980473 63.4285C0.160837 62.6964 0.336985 61.9642 0.469095 61.2211C0.689279 59.9551 1.06359 58.7165 1.59203 57.5386C2.38835 55.7733 2.80469 53.8604 2.81405 51.9239C2.84616 50.9565 2.93253 49.9917 3.07276 49.034C3.16634 48.3184 3.25442 47.6028 3.29845 46.8872C3.38653 45.5275 3.32047 44.1899 3.24341 42.7257C3.03423 42.8908 2.83056 43.056 2.6379 43.2211C2.24064 43.552 1.83689 43.875 1.42689 44.1899C-0.94008 45.9734 -2.77861 48.2193 -4.35292 50.6853C-4.95038 51.6606 -5.49787 52.6655 -5.99329 53.6963C-6.20247 54.1092 -6.40613 54.522 -6.62081 54.9294C-7.46595 56.6107 -8.2068 58.3424 -8.83916 60.1147C-8.94925 60.434 -9.07586 60.7477 -9.19146 61.0615C-10.1768 63.6486 -11.1621 66.2468 -11.5474 69.0101C-11.6575 69.8028 -11.8777 70.5624 -12.0924 71.3275C-12.285 72.0101 -12.4777 72.6927 -12.6043 73.4138C-12.9071 73.4688 -13.1988 73.4688 -13.5456 73.4688L-13.3915 72.9294C-12.9291 71.3055 -12.4557 69.6762 -12.219 67.9753C-12.1034 67.1165 -11.8557 66.2688 -11.608 65.4321L-11.4428 64.8541C-11.1951 64.0009 -10.8759 63.1752 -10.5621 62.3496C-10.2869 61.634 -10.0116 60.9184 -9.78045 60.1752C-9.51072 59.3055 -9.14742 58.4578 -8.78962 57.6156C-8.65201 57.3019 -8.51439 56.9936 -8.38779 56.6798C-7.47403 54.4615 -6.32907 52.3532 -5.14008 50.278L-5.12357 50.2505C-4.71623 49.5404 -4.29788 48.8138 -3.69237 48.2303C-3.21347 47.7734 -3.18595 47.1844 -3.15843 46.5954C-3.15013 46.2232 -3.10589 45.8527 -3.02632 45.489C-2.75109 43.7441 -2.47036 41.9881 -1.58412 40.4358C-0.659346 38.8174 0.870929 37.9202 2.65441 37.4853C3.9535 37.1661 5.2746 36.9679 6.60671 36.8798C7.15717 36.8523 7.69662 36.6762 8.23607 36.5C8.52231 36.4064 8.81405 36.3129 9.10579 36.2413C9.38102 36.1752 9.65625 36.0982 9.93148 36.0211C10.9939 35.7404 12.0452 35.4541 13.1517 35.5092H13.2067C13.4269 35.5202 13.6636 35.5257 13.7021 35.8119C13.7352 36.0927 13.537 36.1312 13.3388 36.1697L13.2287 36.1918L10.9168 36.7367C9.46359 37.078 8.01588 37.4248 6.54616 37.7441C5.91313 37.8817 5.25258 37.9202 4.59754 37.9642L4.11313 37.9973C3.63974 38.0303 3.19387 38.0908 2.80304 38.3441C4.22322 39.2303 5.05992 40.4248 5.0379 42.1312C5.02139 43.1386 5.06542 44.1404 5.10396 45.1477C5.159 46.4743 5.21405 47.8009 5.13698 49.1275C5.04341 50.8615 4.85075 52.5734 4.59203 54.2908C4.44341 55.2872 4.33332 56.2945 4.21772 57.2963C4.10763 58.2431 3.99753 59.1899 3.86542 60.1312C3.72781 61.067 3.63974 62.0138 3.54616 62.9551C3.46359 63.8248 3.38102 64.6945 3.25992 65.5642C3.1168 66.5826 3.01772 67.6009 2.91313 68.6248C2.82506 69.5055 2.73699 70.3973 2.62139 71.278C2.59387 71.4982 2.58286 71.7294 2.56634 71.9551C2.53882 72.434 2.5113 72.9184 2.34616 73.4138C2.0324 73.4688 1.71864 73.4688 1.41038 73.4138C1.83979 71.583 2.14689 69.7257 2.32965 67.8541L2.35166 67.645C2.46175 66.7367 2.53882 65.8285 2.62139 64.9147C2.74799 63.4285 2.8801 61.9422 3.13332 60.467C3.22576 59.874 3.29006 59.277 3.32597 58.678C3.38653 57.9019 3.44708 57.1257 3.62873 56.3606C4.04168 54.441 4.28117 52.4882 4.34432 50.5257C4.49845 47.6468 4.53698 44.7569 4.36084 41.8835C4.30579 40.9642 4.10763 40.0395 3.28744 39.2963C3.37552 39.5716 3.46909 39.8303 3.56267 40.0835C3.76634 40.623 3.959 41.1294 4.00304 41.6523C4.12401 43.1665 4.16443 44.6861 4.12414 46.2046C4.09662 47.9771 3.90396 49.7386 3.70579 51.5L3.51313 53.322C3.31497 55.3257 3.03423 57.3074 2.74799 59.289L2.37919 61.9367C2.26909 62.7349 2.19203 63.5386 2.10396 64.3422C2.01038 65.3055 1.9113 66.2688 1.76818 67.2266C1.6801 67.8321 1.62506 68.4486 1.57001 69.0597C1.47643 70.078 1.38836 71.0964 1.12965 72.0927C1.11864 72.1587 1.09662 72.2303 1.0746 72.2964C0.970013 72.6707 0.854416 73.067 1.04708 73.4688C0.739655 73.4762 0.432157 73.4578 0.12781 73.4138C0.171846 72.9844 0.237903 72.5716 0.303957 72.1642C0.359003 71.8064 0.419553 71.4486 0.458085 71.0853C0.53515 70.3312 0.623222 69.5826 0.705791 68.834L0.981021 66.3514C1.14616 64.7551 1.35533 63.1642 1.57001 61.5734L1.84524 59.5367C1.73515 59.9881 1.60304 60.4285 1.47093 60.8633C1.27827 61.4963 1.08561 62.1239 0.986526 62.7679C0.843407 63.6927 0.65625 64.6009 0.458085 65.5202C0.210379 66.7037 -0.0373278 67.8872 -0.180447 69.0982L-0.351089 70.3477C-0.530372 71.3788 -0.627923 72.4224 -0.642833 73.4688H-1.71072V73.4633ZM1.60854 42.9514C1.93827 42.5874 2.31824 42.2723 2.73698 42.0156C3.10579 41.8064 3.21038 41.4652 3.07827 41.1184C3.01221 40.9532 2.9902 40.7606 2.96267 40.5734C2.90212 40.1441 2.84157 39.7092 2.32414 39.489C2.04891 39.3679 1.78469 39.4725 1.59203 39.6101C1.22299 39.8579 0.899055 40.1669 0.634233 40.5239C-0.312556 41.9551 -0.835493 43.5624 -1.33091 45.3844C-0.725401 44.7789 -0.108888 44.311 0.502122 43.8376C0.876434 43.5514 1.24524 43.2652 1.60854 42.9569V42.9514ZM-0.461181 40.7496C-1.00063 42.0486 -1.54558 43.3367 -1.67219 44.7679C-1.70422 45.3904 -1.92288 45.9888 -2.29971 46.4853L-2.09604 45.4945C-1.72173 43.656 -1.34742 41.8119 -0.235493 40.2101L-0.455676 40.7496H-0.461181ZM56.7205 65.4707C57.5902 68.0578 58.0471 70.7551 58.4599 73.4633C58.7627 73.4633 59.0104 73.4633 59.2636 73.4083C59.0434 71.2395 58.5645 69.1863 58.0856 67.133L58.0746 67.1C57.8544 66.1312 57.5351 65.1899 57.2159 64.2486L56.9407 63.423C56.2356 61.1769 55.4349 58.9621 54.5407 56.7844C54.0375 55.6557 53.4771 54.5533 52.8618 53.4817C52.603 53.0138 52.3663 52.5459 52.1296 52.067C51.5876 50.9055 50.9253 49.8041 50.1535 48.7808C49.8342 48.3734 49.504 47.9606 49.3553 47.4982C48.7184 45.5976 48.0356 43.7126 47.3076 41.845C46.9169 40.7416 46.3043 39.73 45.5076 38.8725C44.3847 37.7165 42.8654 37.3037 41.3737 36.9459C40.1076 36.6486 38.8361 36.3954 37.5645 36.1477L35.3351 35.6963C33.4554 35.3051 31.5282 35.1938 29.6159 35.3661C29.3131 35.3936 29.0654 35.4652 28.9553 35.9496C29.759 36.0431 30.5627 36.0597 31.3608 36.0817C32.6929 36.1202 34.0251 36.1532 35.3462 36.5165C36.7333 36.8908 38.1535 37.1936 39.6067 37.5019C40.2948 37.645 40.9829 37.7881 41.6929 37.9477C41.1865 38.4817 41.17 39.0156 41.1535 39.5441L41.148 39.7918C41.104 40.5624 41.2251 41.3165 41.3407 42.0707C41.4232 42.5881 41.5058 43.1055 41.5333 43.623C41.6654 46.089 42.0618 48.522 42.4581 50.9441L42.5296 51.4064C42.7223 52.5789 42.8599 53.7569 42.9975 54.9294C43.1241 55.9752 43.2452 57.0266 43.4104 58.067C43.6691 59.7734 43.7627 61.5019 43.8563 63.2248C43.9223 64.3973 43.9884 65.5697 44.104 66.7422C44.2141 67.8982 44.3021 69.0597 44.3847 70.2266C44.4618 71.3055 44.5388 72.3844 44.6434 73.4633H45.293C45.2599 70.7606 45.0618 68.0688 44.8581 65.3716C44.759 63.9844 44.6544 62.6028 44.5719 61.2211C44.4905 60.0677 44.362 58.9181 44.1865 57.7752C44.0985 57.1808 44.0214 56.5918 43.9443 56.0028C43.7407 54.2578 43.4654 52.5239 43.1902 50.7899C42.9535 49.2927 42.7168 47.8009 42.5296 46.2982C42.4306 45.5716 42.3095 44.856 42.1994 44.1349C41.9462 42.6376 41.704 41.1459 41.6819 39.6211C41.6764 39.0156 41.8691 38.5367 42.37 38.1349C41.5663 39.7918 41.9186 41.3936 42.2709 42.9789C42.3645 43.4028 42.4526 43.8156 42.5241 44.234C42.5902 44.6028 42.6618 44.9661 42.7443 45.3349C42.8929 46.067 43.0471 46.8046 43.0856 47.5477C43.1186 48.1642 43.2397 48.7587 43.3498 49.3477C43.4324 49.7606 43.515 50.1734 43.57 50.5973C43.7021 51.6817 43.8783 52.7606 44.0544 53.845C44.3296 55.5294 44.6049 57.2138 44.726 58.9257C44.8251 60.3844 45.1113 61.8376 45.3865 63.2743L45.4251 63.4945C45.5627 64.1991 45.5902 64.9147 45.6122 65.6083L45.6177 65.7239C45.6658 66.7405 45.7429 67.7556 45.8489 68.7679C45.97 70.089 46.0966 71.4046 46.0966 72.7312L46.0801 72.9734C46.0746 73.1055 46.0636 73.2486 46.0746 73.4138C46.2808 73.4576 46.4915 73.4761 46.7021 73.4688C46.8507 70.9753 46.6801 68.4927 46.4599 65.8725C47.2306 68.0743 47.6159 70.2431 48.0012 72.445L48.1663 73.4028C48.4636 73.4578 48.7718 73.4688 49.0746 73.4193C48.8544 72.9349 48.8214 72.434 48.7884 71.9441C48.7608 71.6358 48.7388 71.333 48.6783 71.0358L48.4911 70.2321C48.0618 68.3055 47.6324 66.3789 46.8397 64.5349L46.6691 64.1551C46.4345 63.724 46.2797 63.254 46.2122 62.7679C46.1517 61.9422 45.9865 61.133 45.8269 60.3349L45.6893 59.6578C45.5061 58.6363 45.3628 57.608 45.2599 56.5752C45.1388 55.5239 45.0177 54.467 44.814 53.4211C44.6104 52.3863 44.4287 51.3459 44.2581 50.3055C43.9829 48.6817 43.7076 47.0578 43.3223 45.445L43.2122 44.9826C43.0273 44.3183 42.9038 43.6383 42.8434 42.9514C42.9315 42.9899 43.0141 43.0119 43.0856 43.0395C43.2177 43.0835 43.3168 43.1165 43.3994 43.1771L43.4544 43.2211C45.1718 44.5422 46.9003 45.8743 48.2489 47.5973C49.4438 49.0834 50.4771 50.6925 51.3315 52.3973C51.6507 53.0578 51.992 53.7184 52.3223 54.3734C53.0677 55.773 53.7491 57.2056 54.3645 58.667C55.014 60.2578 55.5425 61.8872 56.0709 63.511C56.2801 64.1716 56.4948 64.8211 56.715 65.4707H56.7205ZM43.3113 42.1973C42.9755 42.0046 42.7388 41.7459 42.6838 41.3496C42.4707 40.7612 42.4157 40.1273 42.5241 39.511C42.6452 38.6688 43.2232 38.4321 43.9829 38.7954C45.0783 39.3074 45.5572 40.3092 46.0251 41.2835C46.0801 41.3826 46.1241 41.4872 46.1737 41.5863C46.6251 42.5165 46.9994 43.4853 47.3957 44.5147L47.9462 45.9459L47.3186 45.3514C46.3723 44.4145 45.3526 43.5549 44.2691 42.7808C43.9608 42.5716 43.6361 42.3844 43.3113 42.1973Z" fill="black"/>
<path d="M8.41772 4.86512C11.159 -0.545889 25.2728 -5.58259 24.1333 -6.45231C24.1168 -6.73855 24.2985 -6.89268 24.5351 -6.95873C27.0122 -7.66332 29.5223 -8.25231 32.1205 -8.1257C34.6251 -8.0046 36.5352 -6.83763 37.6581 -4.58075C38.2801 -3.33121 38.726 -1.98809 38.6489 -0.545889C38.6197 -0.292545 38.6596 -0.0360231 38.7642 0.196534C38.8689 0.429091 39.0344 0.629036 39.2434 0.775212C41.0434 2.1954 41.2251 5.66328 39.5462 7.20457C39.2874 7.44127 39.5076 7.7275 39.6012 8.0853C39.8214 8.96604 39.2709 9.77521 38.792 10.4963C38.3186 11.2119 38.2801 12.0926 37.7902 12.8413C37.7186 10.3477 38.1205 7.79356 36.8709 5.35503C35.7868 6.80995 34.2765 7.89119 32.5498 8.44861C30.2455 9.25632 27.7667 9.43121 25.3718 8.95503C23.7205 8.64677 22.0306 8.52017 20.3517 8.42108C19.3962 8.33644 18.4338 8.45828 17.5296 8.77835C16.6254 9.09843 15.8007 9.60924 15.1113 10.2761C14.2565 11.0936 13.7581 12.2149 13.7241 13.3972C13.614 15.1037 13.4819 16.8101 13.614 18.5165C13.6416 18.9514 13.57 19.4248 13.0361 19.5018C12.6067 19.5569 12.2654 19.3367 11.9902 18.9624C11.5168 18.3018 11.5939 17.4541 11.159 16.7605C10.8248 16.1854 10.3705 15.6891 9.82717 15.3053C9.28383 14.9215 8.66416 14.6594 8.01038 14.5367C7.81221 14.4981 7.65258 14.5917 7.47643 14.6633C6.88194 14.9165 6.66176 14.7293 6.55717 14.0743C6.32047 12.5165 5.68194 10.2761 8.42322 4.86512H8.41772Z" fill="black"/>
<path d="M29.5333 29.7293C28.9608 29.0467 28.3994 28.4633 27.4471 28.5899C27.4115 28.5961 27.375 28.595 27.3399 28.5866C27.3048 28.5782 27.2718 28.5627 27.2429 28.541C27.214 28.5193 27.1899 28.492 27.172 28.4606C27.1541 28.4293 27.1428 28.3946 27.1388 28.3587C27.1113 28.2045 27.1994 28.1 27.315 28.0009C27.7443 27.6266 28.526 27.6266 29.2196 28.0174C29.8251 28.3477 30.2489 29.1018 30.1498 29.6357C30.0562 30.1091 29.8306 30.0045 29.5333 29.7293Z" fill="black"/>
<path d="M26.6599 23.4541C26.9572 22.9752 27.904 22.7825 28.4269 23.0522C28.7902 23.2394 29.1425 23.4706 29.5278 23.1458C29.8856 22.8375 29.781 22.4742 29.6104 22.1164C29.5223 21.9403 29.5663 21.8027 29.7315 21.7036C29.8966 21.599 30.0342 21.6431 30.1829 21.7476C30.3682 21.8764 30.5097 22.0588 30.5885 22.2704C30.6672 22.4819 30.6793 22.7125 30.6232 22.9311C30.5351 23.333 30.414 23.8119 29.9241 23.977C29.704 24.0541 29.4397 24.1697 29.2471 24.1091C28.3994 23.8504 27.3865 24.2963 26.6599 23.4486V23.4541Z" fill="black"/>
<path d="M32.6599 20.6743C33.3755 20.6908 34.0581 20.7349 34.7296 20.8119C34.8948 20.834 35.0049 20.9936 35.0049 21.1807C35.0049 21.3624 34.9113 21.489 34.7462 21.5661C34.1296 21.8303 33.5351 22.0174 32.8911 21.5771C32.5333 21.3294 32.3957 21.0982 32.6599 20.6743ZM23.8636 20.3716C24.2489 20.3716 24.2929 20.5807 24.2489 20.8395C24.1388 21.4009 23.148 22.0725 22.5755 21.9679C22.2507 21.9129 21.9975 21.7477 21.9865 21.3899C21.9755 21.0211 22.2507 20.9385 22.5535 20.9275C23.0489 20.911 23.4232 20.6413 23.8636 20.3771V20.3716ZM22.0746 18.1477C22.3498 17.4872 22.57 16.5294 23.4012 16.9092C24.5407 17.4266 24.1663 18.5991 23.9351 19.5184C23.8471 19.8651 23.137 20.3936 22.9278 20.3055C22.0306 19.9312 21.8709 19.111 22.0746 18.1477ZM34.5645 20.1734C34.0911 20.5862 33.6287 20.5918 33.3425 20.0908C32.8471 19.2101 32.8691 18.2853 33.5241 17.4927C33.6618 17.3275 34.2838 17.2945 34.4214 17.4376C35.192 18.2633 35.2251 19.1881 34.5645 20.1734Z" fill="black"/>
<path d="M24.8819 15.0211C24.403 14.355 23.4948 14.1403 22.7462 14.333C22.0856 14.5091 21.5517 14.9385 20.8966 15.1257C20.6764 15.1862 20.4838 15.2743 20.3627 15.0101C20.2581 14.7954 20.2801 14.6027 20.4838 14.4431C21.5186 13.6559 23.4342 12.9624 24.8159 13.733C25.1521 13.9396 25.4349 14.2225 25.6416 14.5587C25.8232 14.8174 25.8893 15.1972 25.6416 15.3899C25.3168 15.6431 25.0911 15.3238 24.8819 15.0211ZM35.115 15.3513C34.581 14.9935 34.0746 14.9495 33.5737 15.3073C33.3975 15.4339 33.2049 15.5715 33.0232 15.3513C32.8416 15.1257 32.8911 14.8779 33.0948 14.6578C33.403 14.322 33.8214 14.2669 34.2397 14.2174C34.7261 14.1712 35.211 14.3187 35.5892 14.6279C35.9675 14.9371 36.2085 15.383 36.2599 15.8688C36.2709 16.1055 36.2599 16.3697 35.9737 16.4357C35.715 16.4908 35.5168 16.3422 35.4122 16.111C35.3076 15.8798 35.2361 15.6321 35.115 15.3513ZM29.8085 14.3165C30.0948 13.9532 30.2489 13.4908 30.6067 13.1825C30.7443 13.0669 30.8489 12.8798 31.0746 13.0064C31.2783 13.122 31.2948 13.3312 31.2397 13.5018C31.0691 13.9752 30.8709 14.4431 30.6507 14.9C30.5406 15.1201 30.2654 15.2027 30.0452 15.1312C29.6819 15.0211 29.77 14.6963 29.803 14.366V14.311L29.8085 14.3165Z" fill="black"/>
<path d="M29.814 14.3055C29.704 14.5366 29.6159 14.7733 29.5003 14.999C29.4122 15.1697 29.2691 15.3183 29.0599 15.2522C28.8067 15.1752 28.7847 14.9605 28.8397 14.7403C28.9058 14.5146 28.9774 14.3 29.0599 14.0798C29.17 13.8211 29.1425 13.3972 29.5718 13.4578C30.0342 13.5293 29.814 13.9201 29.814 14.2504V14.3055Z" fill="black"/>
</g>
</g>
<defs>
<clipPath id="clip0_2_794">
<path d="M0.65625 24.5C0.65625 11.2452 11.4014 0.5 24.6562 0.5C37.9111 0.5 48.6562 11.2452 48.6562 24.5C48.6562 37.7548 37.9111 48.5 24.6562 48.5C11.4014 48.5 0.65625 37.7548 0.65625 24.5Z" fill="white"/>
</clipPath>
</defs>
</svg>
