<svg width="48" height="49" viewBox="0 0 48 49" fill="none" xmlns="http://www.w3.org/2000/svg">
<g clip-path="url(#clip0_2_687)">
<mask id="mask0_2_687" style="mask-type:luminance" maskUnits="userSpaceOnUse" x="0" y="0" width="48" height="49">
<path d="M48 0.5H0V48.5H48V0.5Z" fill="white"/>
</mask>
<g mask="url(#mask0_2_687)">
<path d="M35.7248 43.3641C30.2642 59.7127 15.6991 64.7549 7.99817 44.454C6.93578 41.6632 9.70459 40.6283 11.6422 39.3953C12.9688 38.5531 13.6679 37.8265 13.5853 37.0724C13.2 33.5274 11.5541 23.6522 11.5541 23.6522L11.389 23.3329C11.389 23.3329 11.4275 23.2448 11.2679 23.399C11.1028 23.5641 10.7229 25.2815 9.23119 25.2815C7.88257 25.2815 6.52294 24.6815 5.8734 20.5311C5.62569 19.0283 5.7578 15.087 7.43119 14.3715C8.11927 14.0797 8.7523 13.9751 9.36881 14.3274C9.99083 14.6797 8.65321 13.1164 15.5339 7.39163C20.0037 3.65952 27.0661 3.11457 29.9174 3.7476C32.7688 4.38062 35.6147 5.77329 36.8752 8.72925C38.4055 12.3072 35.4495 15.021 36.1046 23.1788C35.9835 26.1292 36.1486 32.6026 28.0349 34.7715C26.4936 35.1843 26.9725 37.4357 29.2844 37.9861C32.9725 39.1421 35.7248 41.9659 35.7248 43.3751" fill="white"/>
<path fill-rule="evenodd" clip-rule="evenodd" d="M35.7248 17.9605L35.7303 17.8834C35.956 15.8797 36.1817 13.9366 37.222 12.1917C37.5798 12.4339 37.5358 12.7421 37.4257 13.0283C36.3303 15.8467 36.4349 18.7751 36.534 21.7036L36.556 22.4742C36.6716 26.1293 35.7578 29.454 33.3248 32.2449C32.4771 33.2137 31.3542 33.8852 30.2147 34.4632C29.0367 35.0687 28.789 35.5696 29.1578 36.8632L29.2019 37.0063C29.2789 37.221 29.356 37.4412 29.1468 37.6559C28.8991 37.9091 28.6239 37.8375 28.3321 37.755L28.2991 37.7495C25.5699 36.9853 23.0107 35.7094 20.7578 33.9898C20.4275 33.7476 20.1633 33.4228 19.9046 33.1036L19.8881 33.0816C19.7505 32.9164 19.723 32.6522 19.9156 32.5091C20.0973 32.3715 20.2349 32.4816 20.3945 32.6082L20.4496 32.6577C21.6515 33.633 23.1104 34.2391 24.6496 34.4027C25.3872 34.4797 26.1138 34.4522 26.8514 34.4247C27.2587 34.4082 27.6661 34.3917 28.0789 34.3972C28.6404 34.3972 29.1083 34.1384 29.5486 33.8907L29.7028 33.8027C31.2331 32.9494 32.6918 31.9972 33.6771 30.4614C34.5633 29.0852 35.1028 27.588 35.4165 26.0082C35.8129 24.021 35.7798 22.0063 35.7468 19.9641C35.7303 19.3036 35.7193 18.632 35.7193 17.9605H35.7248ZM8.0147 13.81C9.22021 13.7164 9.88626 14.4265 10.4532 15.2577C11.1252 16.2732 11.5477 17.4332 11.6863 18.643C11.7138 18.8467 11.7413 19.0614 11.6202 19.265C11.3725 19.2981 11.3505 19.0999 11.345 18.9568C11.3175 17.8173 10.811 16.8265 10.3046 15.8687C9.94131 15.1806 9.41287 14.5146 8.57617 14.3494C7.62938 14.1568 6.75966 15.01 6.3303 16.1219C5.53213 18.1917 5.66975 20.2283 6.40736 22.232C6.72663 23.1072 7.12846 23.999 7.93764 24.61C8.75232 25.232 9.73764 25.1219 10.3376 24.2962L10.4477 24.1586C10.5578 24.0155 10.6679 23.8779 10.723 23.7183C10.8386 23.399 11.0202 23.1017 11.345 23.1458C11.7193 23.2008 11.7853 23.6027 11.8239 23.9164C12.1654 26.8 12.5691 29.6759 13.0349 32.5421L13.3597 34.6779C13.5028 35.6192 13.6679 36.9733 13.5578 37.5458C13.5507 37.5859 13.5452 37.6263 13.5413 37.6669C13.5193 37.821 13.5083 37.9421 13.3101 37.9696C13.0404 38.0137 12.9248 37.8595 12.8863 37.6173C12.7597 36.6816 12.7211 36.3183 12.6661 34.8871C12.6165 33.4999 12.3578 32.1348 12.0936 30.7641L11.8184 29.2779C11.5321 27.5825 11.2514 25.865 11.2239 23.9384L11.1138 24.1036C10.6954 24.7256 10.3597 25.232 9.76516 25.4247C9.32386 25.5938 8.84024 25.6182 8.38412 25.4946C7.92801 25.3709 7.52299 25.1055 7.22755 24.7366C6.45188 23.8605 5.90699 22.8048 5.64223 21.665C5.17984 19.7935 5.09727 17.9715 5.69177 16.1274C5.978 15.2412 6.99635 13.6669 8.0147 13.8155V13.81ZM9.91929 20.8283C10.1615 21.0045 10.3817 21.1586 10.5798 20.5311C10.5193 18.2082 9.77067 16.7219 8.6092 16.6614C9.22571 17.465 9.82021 18.2467 9.87525 19.3311C9.6462 19.2141 9.44525 19.0489 9.28626 18.8467C9.17617 18.7256 9.06608 18.6045 8.92846 18.5164L8.76333 18.3843C8.49911 18.1861 8.22938 17.977 7.78351 18.1366C7.99268 18.4559 8.27892 18.6871 8.57067 18.9072C8.90094 19.166 9.23122 19.4192 9.42938 19.8155C8.84589 20.2394 8.59268 20.7898 8.89544 21.4614C9.15966 22.0394 9.55048 22.5183 10.3211 22.5513C10.2881 22.2045 10.0624 21.9513 9.83672 21.7036C9.56149 21.4063 9.30278 21.1201 9.42388 20.6797C9.60002 20.5972 9.76516 20.7183 9.91929 20.8283Z" fill="black"/>
<path d="M58.0954 73.1053L-13.6679 72.9127C-13.6679 72.9127 -11.0973 56.1732 -4.23305 48.4173C-1.15598 44.9439 1.40365 41.5145 8.27888 39.0485C9.45686 38.6246 11.2018 34.2044 12.1376 33.742C13.0238 33.3017 12.4403 36.6154 13.2605 37.287C14.933 38.6825 16.6985 39.9626 18.5449 41.1182C21.7871 43.1659 23.2789 47.443 23.2789 47.443C23.2789 47.443 24.7321 43.32 25.9431 41.2943C26.7963 39.8631 29.6477 35.6576 29.6477 35.6576C29.6477 35.6576 34.8605 37.287 36.7926 38.7237C37.9651 39.5934 37.277 39.4008 42.5945 42.4393C47.2128 45.076 51.7431 52.298 54.1541 58.2925C56.7193 64.6668 58.0954 73.0998 58.0954 73.0998V73.1053Z" fill="white"/>
<path fill-rule="evenodd" clip-rule="evenodd" d="M57.7431 73.1054C57.3743 71.6192 57.055 70.1329 56.7358 68.6412C56.5982 67.9806 56.4605 67.3201 56.3119 66.6705C55.8605 64.6338 55.2661 62.6522 54.611 60.6815C53.9799 58.7644 53.2071 56.8969 52.2991 55.0944C51.3971 53.2538 50.367 51.4788 49.2165 49.7825C47.5651 47.399 45.7706 45.1311 43.3927 43.4302C41.6642 42.1971 39.7486 41.2724 37.8385 40.3531C37.1615 40.0228 36.4679 40.1769 35.7908 40.3256L35.5706 40.3806C35.0257 40.4907 34.4917 40.6118 33.9523 40.7329C33.3059 40.8802 32.6582 41.0215 32.0092 41.1568C31.7284 41.2118 31.6239 41.377 31.5413 41.6081L31.211 42.5714C30.9853 43.243 30.7541 43.9146 30.545 44.5916C30.4018 45.043 30.1596 45.2412 29.6807 45.2302C29.2734 45.2247 28.8661 45.2302 28.4587 45.2412C28.0183 45.2467 27.5835 45.2577 27.1486 45.2467C26.378 45.2302 25.9982 45.5054 26.0917 46.4302C26.1963 47.421 26.1908 48.4173 26.1908 49.4192C26.1908 50.0081 26.1908 50.5971 26.2073 51.1916C26.2624 52.7054 26.2624 54.2357 26.2349 55.7439C26.1798 58.5678 26.1798 61.3916 26.1798 64.221C26.1853 67.1494 26.1908 70.0834 26.1248 73.0393C25.9132 73.1013 25.6888 73.1051 25.4752 73.0503C25.4037 70.0724 25.3706 67.1439 25.3872 64.2155C25.3982 62.465 25.3872 60.7091 25.3817 58.9531C25.3596 55.4357 25.3431 51.9182 25.4807 48.4008C25.4917 48.2081 25.4257 48.032 25.211 48.0265C25.0855 48.1669 24.9589 48.3064 24.8312 48.4448C24.1266 49.2155 23.433 49.9751 23.1028 51.0815C22.6459 50.5531 22.4587 49.9366 22.2716 49.3476C22.0679 48.6925 21.8697 48.065 21.3358 47.5916C21.2257 47.9109 21.2257 48.2026 21.2257 48.4999V50.3164L21.2367 54.1146L21.2312 58.7604C21.2257 62.1182 21.2202 65.4705 21.2312 68.8228C21.2367 69.2302 21.2312 69.6375 21.2147 70.0393C21.1927 71.0632 21.1651 72.087 21.3248 73.0999H20.5431C20.4709 71.9545 20.436 70.8071 20.4385 69.6595V47.6962C20.4385 46.3751 20.0147 46.0008 18.7541 45.6595C16.6624 45.1091 14.5596 44.5091 12.9523 42.9237C12.3578 42.3403 11.7193 42.632 11.1908 42.8687L11.1248 42.9017C10.6514 43.1219 10.1615 43.2815 9.67156 43.4412C9.01101 43.6614 8.35046 43.8815 7.73945 44.2283C7.61285 44.2944 7.49725 44.3714 7.37615 44.4485C7.14693 44.6031 6.90365 44.7358 6.64954 44.8448L6.52844 44.8999C6.36331 44.9769 6.20367 45.0485 6.01652 44.8724C5.80734 44.6852 5.81285 44.487 5.90642 44.2393L6.22019 43.2981C6.49541 42.4614 6.77065 41.6302 7.13395 40.821L7.18899 40.7109C7.26606 40.5843 7.33762 40.4577 7.26606 40.287C7.04587 40.1384 6.84221 40.2485 6.66055 40.3476L6.56147 40.4026L6.44037 40.4577L6.33028 40.5127C3.99633 41.6852 1.66239 42.8577 -0.264217 44.6962C-1.63797 45.9851 -2.90796 47.3802 -4.06238 48.8687C-6.28039 51.8151 -8.08946 55.0481 -9.44036 58.4797C-10.7394 61.7164 -11.8624 65.0302 -12.4294 68.4981C-12.5394 69.1366 -12.6385 69.7751 -12.7431 70.4192L-13.178 73.0448C-13.4807 73.0999 -13.7725 73.0999 -14.1193 73.0999C-13.8661 71.2834 -13.5743 69.4669 -13.2275 67.6558C-13.1009 67.0008 -12.9358 66.3568 -12.7651 65.7127C-12.6661 65.3164 -12.5615 64.9256 -12.4734 64.5292C-12.1612 63.2897 -11.7883 62.0662 -11.356 60.8632L-11.3009 60.7146C-10.1569 57.258 -8.60467 53.9502 -6.67706 50.8614C-5.74703 49.3802 -4.69768 47.9773 -3.53945 46.6669C-1.4477 44.2834 0.864223 42.1531 3.76514 40.8155C5.33945 40.0889 6.80367 39.2192 8.25688 38.2944C8.66973 38.0302 8.86239 37.6503 9.06055 37.2705C9.13762 37.1329 9.20918 36.9898 9.29725 36.8522C10.1064 35.5586 10.9486 34.2981 12.2202 33.3953L12.3083 33.3292C12.4679 33.2026 12.622 33.087 12.8422 33.2192C13.0404 33.3292 13.0294 33.4999 13.0239 33.6815V33.8357C13.0569 34.7494 13.1339 35.6577 13.211 36.5659C13.2385 36.8577 13.3596 37.1164 13.6514 37.2485C14.8844 37.8155 15.9358 38.6412 16.9872 39.4724C17.6202 39.9678 18.2532 40.4632 18.9248 40.9036C20.5441 41.9317 21.8861 43.3418 22.833 45.01C22.9431 45.2081 23.0257 45.4173 23.1193 45.6595L23.2624 46.0228C23.7743 43.9586 24.8752 42.2687 25.9762 40.5898L26.6202 39.599C26.7303 39.4228 26.8183 39.2357 26.9064 39.0485C27.0275 38.7953 27.1486 38.5421 27.3358 38.3109C27.4712 38.146 27.5557 37.9453 27.5792 37.7333C27.6027 37.5212 27.564 37.3069 27.4679 37.1164C27.3468 36.8577 27.2807 36.588 27.3853 36.3072C27.8532 36.1641 28.1009 36.4338 28.3651 36.7146L28.4202 36.7696C28.9156 36.4503 28.8605 36.0375 28.6018 35.5971C28.5138 35.443 28.4367 35.2944 28.5688 35.1458C28.6954 35.0081 28.8661 35.0247 29.0312 35.0742C31.0734 35.6632 33.1046 36.2852 34.9872 37.3091C35.2459 37.4522 35.5156 37.5843 35.7853 37.7109C36.5174 38.0632 37.2495 38.4155 37.7835 39.0045C38.6312 39.9403 39.7156 40.4467 40.8 40.9531C41.4495 41.2614 42.0936 41.5586 42.6936 41.9549C44.0395 42.7948 45.2843 43.7866 46.4037 44.9109C47.6697 46.2485 48.8532 47.6632 49.8826 49.1825C50.7853 50.5036 51.644 51.8577 52.3927 53.2834C53.4123 55.225 54.2952 57.2354 55.0349 59.2999C55.7229 61.21 56.3119 63.1476 56.8349 65.1072C57.2092 66.5274 57.4514 67.9696 57.6881 69.4173C57.8917 70.6283 58.0899 71.8393 58.3706 73.0503C58.1945 73.1054 58.0018 73.1054 57.7431 73.1054ZM21.8367 44.7678C20.5657 43.2448 19.0761 41.9185 17.4165 40.832C16.9196 40.5039 16.4435 40.1455 15.9908 39.7586C15.3303 39.2192 14.6697 38.6742 13.8881 38.3164C12.9633 37.8981 12.4679 37.3036 12.4349 36.3072V36.1751C12.4294 35.9604 12.4239 35.7458 12.3963 35.5366C12.3523 35.1182 11.8624 34.8981 11.6037 35.2118C11.5156 35.3219 11.411 35.41 11.3119 35.5036C11.1669 35.623 11.0391 35.7619 10.9321 35.9164C9.66606 37.9311 8.41101 39.9458 7.49725 42.1531C7.37615 42.4503 7.29358 42.8412 7.54679 43.0834C7.75046 43.2815 8.00918 43.1769 8.26239 43.0724C8.30613 43.0533 8.35017 43.035 8.3945 43.0173L9.46789 42.61C10.189 42.3237 10.9156 42.043 11.6587 41.8173C12.4459 41.5806 13.0459 41.7182 13.6018 42.3403C14.1906 42.9668 14.9105 43.4555 15.7101 43.7714C16.5853 44.1568 17.4826 44.4485 18.3798 44.7458C19.1615 45.0045 19.9431 45.2632 20.7083 45.5769C21.6495 45.9623 22.5248 46.4632 22.5138 47.6962C22.5138 47.8889 22.5578 48.0815 22.8771 48.054C23.0367 47.6136 23.0367 47.1733 22.8165 46.7329L22.5303 46.1494C22.3101 45.7091 22.0899 45.2577 21.8367 44.7678ZM31.8165 36.7916L32.3119 36.9678L34.7615 38.0962C35.2056 38.2978 35.6497 38.4997 36.0936 38.7017C36.2697 38.7843 36.4624 38.8669 36.4624 39.0925C36.4624 39.3347 36.2697 39.3678 36.0936 39.4008L35.9945 39.4228C35.728 39.4869 35.4619 39.5529 35.1963 39.621C34.5138 39.7916 33.8312 39.9623 33.1321 40.0669C31.6679 40.287 30.8752 40.876 30.4734 42.2852C30.4239 42.4614 30.3633 42.6375 30.2972 42.8081C30.2092 43.0558 30.1266 43.3036 30.0771 43.5458C29.9395 44.2063 29.5156 44.2724 29.0037 44.3164L28.0294 44.4265C27.4954 44.4815 26.9615 44.5476 26.422 44.5806C25.9817 44.6081 25.7284 44.8338 25.5633 45.1861C25.4367 45.4503 25.2936 45.7036 25.156 45.9568C24.8917 46.4357 24.622 46.9146 24.4624 47.443C24.3853 47.6852 24.2752 48.0485 23.8184 48.0375C23.9284 46.7164 24.2587 45.4338 24.7817 44.2228C25.1395 43.3971 25.6404 42.665 26.1413 41.9384C26.5596 41.3219 26.978 40.7054 27.3138 40.0448C27.9303 38.8063 28.833 37.821 29.7468 36.8357L30.033 36.5219C30.2257 36.3072 30.3578 36.2467 30.6165 36.3458C31.0184 36.5109 31.4202 36.654 31.8275 36.7971L31.8165 36.7916Z" fill="black"/>
<path fill-rule="evenodd" clip-rule="evenodd" d="M36 52.3201C35.6807 50.3715 35.7248 48.522 36.622 46.6449C38.2239 48.4504 38.1853 50.5532 38.1523 52.6064L38.1413 53.4706C38.4165 53.5752 38.5651 53.4761 38.6973 53.388L38.8294 53.311C39.5174 53.0082 39.7266 53.1348 39.8422 53.8999C40.0514 55.2871 40.0624 56.6908 40.0734 58.0889L40.0789 58.6944C40.0789 59.0743 39.8752 59.3495 39.611 59.5256C38.9037 60.0503 38.264 60.6604 37.7064 61.3421C37.3431 61.744 36.9798 62.1513 36.5835 62.5201C36.0385 63.0155 35.1138 63.1807 34.5138 62.7238L33.9358 62.2889C33.0661 61.6394 32.2018 60.9954 31.3762 60.2853C30.9774 59.9777 30.6727 59.5645 30.4967 59.0927C30.3206 58.6209 30.2801 58.1092 30.3798 57.6155C30.4734 57.0431 30.5229 56.4596 30.5725 55.8706C30.6165 55.4082 30.6551 54.9458 30.7156 54.4834C30.8697 53.344 31.0844 53.2119 32.1193 53.6632C32.2129 53.7018 32.3064 53.7293 32.4 53.7513C32.6477 53.8174 32.9064 53.8889 33.1321 54.1917L33.2422 53.366C33.3303 52.7054 33.4129 52.0944 33.4074 51.4724V51.4394C33.4074 51.3513 33.4073 51.2412 33.3633 51.2082C32.3725 50.5366 32.5541 49.6559 32.9945 48.8027L33.0496 48.6926C33.3741 48.1565 33.5962 47.5649 33.7046 46.9476C33.7046 46.8816 33.7651 46.821 33.8147 46.7605L33.8807 46.6834L33.9633 46.6999L34.0459 46.722C34.1285 47.2944 34.4312 47.7513 34.7285 48.2137C34.9817 48.6045 35.2349 48.9954 35.3615 49.4522C35.5046 49.9972 35.4165 50.4541 35.0257 50.8009C34.6404 51.1476 34.5853 51.5495 34.6404 52.0119L34.6789 52.3421C34.7119 52.6009 34.745 52.8651 34.756 53.1293C34.8055 54.1036 34.9541 54.2247 36.0165 54.0321C36.1211 53.4816 36.0881 52.9311 36 52.3201ZM37.6129 60.1366C37.6679 60.0816 37.734 60.0321 37.7945 59.9825C37.925 59.8655 38.0629 59.757 38.2073 59.6577C38.978 59.1623 39.3523 58.5238 39.2202 57.5495C39.1486 57.0155 39.1651 56.4761 39.1651 55.9311C39.1762 55.6504 39.1762 55.3697 39.1706 55.0889V54.9568C39.1706 54.7036 39.1706 54.4449 38.9505 54.2412C38.6973 54.2963 38.4606 54.4064 38.2294 54.5165C37.8991 54.6651 37.5688 54.8137 37.211 54.8137C36.8037 54.8137 36.3963 54.8247 35.989 54.8412C34.6899 54.8853 33.3908 54.9348 32.1413 54.4119C31.7119 54.2302 31.5413 54.3678 31.5193 54.8192C31.4642 55.9201 31.3266 57.01 31.1285 58.0889L31.1229 58.111C31.0569 58.4577 30.9853 58.8651 31.3211 59.1458C32.5118 60.1215 33.7082 61.0903 34.9101 62.0522C35.3395 62.4045 35.7798 62.3275 36.0716 61.9091C36.3052 61.5976 36.5609 61.3033 36.8367 61.0284C37.0954 60.7532 37.3651 60.4669 37.6073 60.1366H37.6129ZM36.4954 49.8045C36.5615 49.8376 36.633 49.8761 36.7046 49.8486L37.3651 49.766C36.9248 50.2174 36.6551 50.2229 36.2037 49.81C36.3083 49.7054 36.4018 49.755 36.4954 49.8045Z" fill="black"/>
<path d="M36.9633 3.24123C37.789 5.43205 38.5486 7.08343 38.4055 9.38985C38.3504 10.2376 37.7339 11.5752 37.5247 12.3899C37.233 13.5128 36.622 14.5421 36.5504 15.7311C36.5394 15.8798 36.4293 15.9788 36.1761 16.0284C35.7468 15.4669 35.6917 14.7513 35.6697 14.0908C35.6036 12.0266 35.5046 9.97334 35.0422 7.95866C34.9101 7.39169 34.6954 6.85224 34.4697 6.15866C34.266 8.03022 34.266 8.01921 32.5651 8.04673C29.5046 8.10178 26.455 8.28343 23.4275 8.7238C22.5633 8.8504 22.4917 8.79536 21.8972 7.68894C21.2917 8.09628 21.3082 8.82288 21.0055 9.37334C20.0862 11.0743 18.9027 12.5165 17.1523 13.4412C16.5468 13.7605 15.3137 13.7165 13.9156 13.3477C13.3926 15.0155 12.1266 16.4632 12.5725 18.4229C12.649 18.744 12.6542 19.0781 12.5876 19.4015C12.5211 19.7248 12.3843 20.0297 12.1871 20.2944C11.978 20.5917 11.7468 20.6412 11.4605 20.5532C11.1688 20.4651 11.3064 20.2284 11.3119 20.0247C11.3394 18.2302 10.9046 16.5293 9.88622 15.0541C8.95044 13.6889 6.7431 14.0302 6.03851 15.5715C5.91191 15.8577 5.85136 16.199 5.40548 16.4743C5.32291 15.4669 5.3064 14.5477 5.41099 13.6394C5.62171 11.5242 6.08368 9.44163 6.78713 7.43573C7.82192 4.51868 9.63623 1.94094 12.033 -0.0174854C14.5835 -2.07384 17.6871 -3.32677 20.9504 -3.61749C21.611 -3.68905 22.266 -3.81565 22.9266 -3.88171C25.2454 -4.10564 27.585 -3.80849 29.7743 -3.01198C32.7358 -1.96611 35.2899 -0.35877 36.6275 2.64123C36.7101 2.83389 36.8312 3.01004 36.9633 3.24123ZM10.7725 22.6889C10.9926 22.6284 11.1468 22.6394 11.2128 22.8486C11.6862 24.1807 11.7082 25.5678 11.6422 26.9495C11.6147 27.4779 10.7394 28.1165 10.0073 28.2155C9.30823 28.3036 8.65869 28.21 8.24585 27.555C8.02567 27.2082 8.1908 26.8394 8.31741 26.4265C7.53025 26.4486 6.84768 26.7568 6.1431 26.4265C5.20732 25.9917 5.11374 25.5788 5.85686 24.8853L6.04952 24.6486C5.71924 24.2302 5.17979 24.1697 4.83851 23.7954C4.45869 23.3935 4.40365 23.0137 4.71191 22.6119C5.11924 22.0889 5.76878 21.9899 6.20915 22.3366C6.37979 22.4577 6.52291 22.6229 6.622 22.81C6.82912 23.2245 7.14956 23.5718 7.54612 23.8115C7.94268 24.0512 8.39909 24.1735 8.86236 24.1642C9.8642 24.1917 10.4202 23.5972 10.7725 22.6889Z" fill="black"/>
<path d="M24.1101 29.1678C23.978 30.1422 24.9963 30.9568 25.8936 30.599C25.6569 29.7293 24.7486 29.6412 24.1101 29.1678Z" fill="white"/>
<path fill-rule="evenodd" clip-rule="evenodd" d="M23.5211 30.1035C24.2037 31.3916 25.5028 31.7494 26.9174 31.0008C27.4954 30.6485 27.7376 30.087 27.9468 29.5641C28.0366 29.3507 28.0758 29.1194 28.0615 28.8884C28.0472 28.6573 27.9797 28.4326 27.8642 28.232C27.0936 26.8118 26.1468 26.7732 25.0073 26.9879C23.7688 27.2246 22.9266 28.9916 23.5211 30.1035ZM25.8936 30.5989C24.9963 30.9567 23.978 30.1421 24.1101 29.1677C24.3138 29.3164 24.5395 29.4265 24.7651 29.5366C25.2551 29.7732 25.734 30.0044 25.8936 30.5989Z" fill="black"/>
<path d="M23.2293 26.4816C23.6807 26.6852 23.6532 26.9935 23.4605 27.3073C23.3174 27.555 23.1027 27.7036 22.8165 27.5274C22.5523 27.3623 22.6128 27.1366 22.7615 26.9219C22.8826 26.7568 22.9266 26.5201 23.2293 26.4816Z" fill="black"/>
<path d="M28.0954 23.9825C27.8202 23.9935 27.6165 23.9605 27.4349 23.8229C27.2807 23.7128 27.2587 23.5587 27.2918 23.388C27.3193 23.2064 27.4679 23.1788 27.611 23.1898C28.3872 23.2284 29.1523 23.1623 29.8734 22.8376C30.0496 22.755 30.2037 22.8265 30.2973 22.9807C30.3908 23.1513 30.4073 23.3275 30.2532 23.4981C29.978 23.8174 29.6367 23.9935 29.2073 23.9825H28.1009H28.0954Z" fill="black"/>
<path d="M32.6752 20.0412C32.444 19.5183 32.1303 19.2045 31.5853 19.177C31.255 19.1605 31.2 18.8962 31.0954 18.6375C31.2055 18.5549 31.2881 18.4338 31.3872 18.4283C32.5486 18.3348 33.7211 18.3293 34.8826 18.4228C35.2128 18.4449 35.3945 18.8632 35.0587 18.9953C34.5083 19.2155 34.3706 19.7219 34.0404 20.0852C33.589 20.5806 33.2037 20.5861 32.6752 20.0412ZM22.1615 18.4118C22.833 18.4504 23.433 18.4669 24.033 18.5219C24.2312 18.5384 24.4734 18.621 24.4734 18.8907C24.4734 19.199 24.2202 19.177 24.0165 19.1715C23.6697 19.1715 23.4826 19.3201 23.3284 19.6449C23.1413 20.0522 22.9486 20.4871 22.3376 20.4595C21.7596 20.432 21.5064 20.0632 21.3413 19.6228C21.2202 19.3091 21.0661 19.1605 20.7358 19.1715C20.5486 19.177 20.345 19.1605 20.3229 18.9017C20.3009 18.6265 20.4881 18.5715 20.7083 18.5054C21.1818 18.3792 21.6756 18.3474 22.1615 18.4118Z" fill="black"/>
<path d="M25.8275 15.0431C25.5192 15.9679 25.4642 15.8908 24.5615 15.6816C23.1192 15.3514 21.6605 14.6248 20.1413 15.4449C20.0312 15.5055 19.866 15.5 19.7229 15.489C19.5248 15.478 19.2715 15.5605 19.167 15.3073C19.0514 15.0321 19.2495 14.8504 19.4587 14.7404C20.5431 14.1899 21.5229 13.4027 22.8936 13.5459C23.5981 13.6174 24.3248 13.3917 25.0569 13.4138C26.0917 13.4523 26.2899 13.7275 25.9376 14.7293L25.8275 15.0486V15.0431ZM35.0477 13.8651C35.5761 14.2284 35.7358 14.7899 36.055 15.2413C36.1149 15.3162 36.1447 15.4107 36.1386 15.5064C36.1325 15.6021 36.0909 15.692 36.022 15.7587C35.8899 15.9073 35.7248 15.9128 35.5761 15.8248C34.5248 15.2193 33.4348 15.4725 32.3835 15.7587C31.822 15.9073 31.5798 15.7147 31.4367 15.2523C31.3431 14.9385 31.277 14.6193 31.2385 14.2945C31.167 13.755 31.6183 13.6394 31.9541 13.6229C32.9725 13.5734 34.0128 13.3752 35.0477 13.8651Z" fill="black"/>
</g>
</g>
<defs>
<clipPath id="clip0_2_687">
<path d="M0 24.5C0 11.2452 10.7452 0.5 24 0.5C37.2548 0.5 48 11.2452 48 24.5C48 37.7548 37.2548 48.5 24 48.5C10.7452 48.5 0 37.7548 0 24.5Z" fill="white"/>
</clipPath>
</defs>
</svg>
