<svg width="326" height="17" viewBox="0 0 326 17" fill="none" xmlns="http://www.w3.org/2000/svg">
<path d="M325.328 16.5H0V0.5H325.328V16.5Z" stroke="#E5E7EB"/>
<g clip-path="url(#clip0_2_621)">
<g clip-path="url(#clip1_2_621)">
<path d="M9.90316 1.0625C9.73753 0.71875 9.38753 0.5 9.00316 0.5C8.61878 0.5 8.2719 0.71875 8.10316 1.0625L6.09378 5.19688L1.60628 5.85938C1.23128 5.91563 0.918781 6.17812 0.803156 6.5375C0.687531 6.89687 0.78128 7.29375 1.05003 7.55937L4.30628 10.7812L3.53753 15.3344C3.47503 15.7094 3.63128 16.0906 3.94066 16.3125C4.25003 16.5344 4.65941 16.5625 4.99691 16.3844L9.00628 14.2437L13.0157 16.3844C13.3532 16.5625 13.7625 16.5375 14.0719 16.3125C14.3813 16.0875 14.5375 15.7094 14.475 15.3344L13.7032 10.7812L16.9594 7.55937C17.2282 7.29375 17.325 6.89687 17.2063 6.5375C17.0875 6.17812 16.7782 5.91563 16.4032 5.85938L11.9125 5.19688L9.90316 1.0625Z" fill="#A3A3A3"/>
</g>
</g>
<g clip-path="url(#clip2_2_621)">
<g clip-path="url(#clip3_2_621)">
<path d="M27.9032 1.0625C27.7375 0.71875 27.3875 0.5 27.0032 0.5C26.6188 0.5 26.2719 0.71875 26.1032 1.0625L24.0938 5.19688L19.6063 5.85938C19.2313 5.91563 18.9188 6.17812 18.8032 6.5375C18.6875 6.89687 18.7813 7.29375 19.05 7.55937L22.3063 10.7812L21.5375 15.3344C21.475 15.7094 21.6313 16.0906 21.9407 16.3125C22.25 16.5344 22.6594 16.5625 22.9969 16.3844L27.0063 14.2437L31.0157 16.3844C31.3532 16.5625 31.7625 16.5375 32.0719 16.3125C32.3813 16.0875 32.5375 15.7094 32.475 15.3344L31.7032 10.7812L34.9594 7.55937C35.2282 7.29375 35.325 6.89687 35.2063 6.5375C35.0875 6.17812 34.7782 5.91563 34.4032 5.85938L29.9125 5.19688L27.9032 1.0625Z" fill="#A3A3A3"/>
</g>
</g>
<g clip-path="url(#clip4_2_621)">
<g clip-path="url(#clip5_2_621)">
<path d="M45.9032 1.0625C45.7375 0.71875 45.3875 0.5 45.0032 0.5C44.6188 0.5 44.2719 0.71875 44.1032 1.0625L42.0938 5.19688L37.6063 5.85938C37.2313 5.91563 36.9188 6.17812 36.8032 6.5375C36.6875 6.89687 36.7813 7.29375 37.05 7.55937L40.3063 10.7812L39.5375 15.3344C39.475 15.7094 39.6313 16.0906 39.9407 16.3125C40.25 16.5344 40.6594 16.5625 40.9969 16.3844L45.0063 14.2437L49.0157 16.3844C49.3532 16.5625 49.7625 16.5375 50.0719 16.3125C50.3813 16.0875 50.5375 15.7094 50.475 15.3344L49.7032 10.7812L52.9594 7.55937C53.2282 7.29375 53.325 6.89687 53.2063 6.5375C53.0875 6.17812 52.7782 5.91563 52.4032 5.85938L47.9125 5.19688L45.9032 1.0625Z" fill="#A3A3A3"/>
</g>
</g>
<g clip-path="url(#clip6_2_621)">
<g clip-path="url(#clip7_2_621)">
<path d="M63.9032 1.0625C63.7375 0.71875 63.3875 0.5 63.0032 0.5C62.6188 0.5 62.2719 0.71875 62.1032 1.0625L60.0938 5.19688L55.6063 5.85938C55.2313 5.91563 54.9188 6.17812 54.8032 6.5375C54.6875 6.89687 54.7813 7.29375 55.05 7.55937L58.3063 10.7812L57.5375 15.3344C57.475 15.7094 57.6313 16.0906 57.9407 16.3125C58.25 16.5344 58.6594 16.5625 58.9969 16.3844L63.0063 14.2437L67.0157 16.3844C67.3532 16.5625 67.7625 16.5375 68.0719 16.3125C68.3813 16.0875 68.5375 15.7094 68.475 15.3344L67.7032 10.7812L70.9594 7.55937C71.2282 7.29375 71.325 6.89687 71.2063 6.5375C71.0875 6.17812 70.7782 5.91563 70.4032 5.85938L65.9125 5.19688L63.9032 1.0625Z" fill="#A3A3A3"/>
</g>
</g>
<g clip-path="url(#clip8_2_621)">
<g clip-path="url(#clip9_2_621)">
<path d="M81.9032 1.0625C81.7375 0.71875 81.3875 0.5 81.0032 0.5C80.6188 0.5 80.2719 0.71875 80.1032 1.0625L78.0938 5.19688L73.6063 5.85938C73.2313 5.91563 72.9188 6.17812 72.8032 6.5375C72.6875 6.89687 72.7813 7.29375 73.05 7.55937L76.3063 10.7812L75.5375 15.3344C75.475 15.7094 75.6313 16.0906 75.9407 16.3125C76.25 16.5344 76.6594 16.5625 76.9969 16.3844L81.0063 14.2437L85.0157 16.3844C85.3532 16.5625 85.7625 16.5375 86.0719 16.3125C86.3813 16.0875 86.5375 15.7094 86.475 15.3344L85.7032 10.7812L88.9594 7.55937C89.2282 7.29375 89.325 6.89687 89.2063 6.5375C89.0875 6.17812 88.7782 5.91563 88.4032 5.85938L83.9125 5.19688L81.9032 1.0625Z" fill="#A3A3A3"/>
</g>
</g>
<defs>
<clipPath id="clip0_2_621">
<rect width="18" height="16" fill="white" transform="translate(0 0.5)"/>
</clipPath>
<clipPath id="clip1_2_621">
<path d="M0 0.5H18V16.5H0V0.5Z" fill="white"/>
</clipPath>
<clipPath id="clip2_2_621">
<rect width="18" height="16" fill="white" transform="translate(18 0.5)"/>
</clipPath>
<clipPath id="clip3_2_621">
<path d="M18 0.5H36V16.5H18V0.5Z" fill="white"/>
</clipPath>
<clipPath id="clip4_2_621">
<rect width="18" height="16" fill="white" transform="translate(36 0.5)"/>
</clipPath>
<clipPath id="clip5_2_621">
<path d="M36 0.5H54V16.5H36V0.5Z" fill="white"/>
</clipPath>
<clipPath id="clip6_2_621">
<rect width="18" height="16" fill="white" transform="translate(54 0.5)"/>
</clipPath>
<clipPath id="clip7_2_621">
<path d="M54 0.5H72V16.5H54V0.5Z" fill="white"/>
</clipPath>
<clipPath id="clip8_2_621">
<rect width="18" height="16" fill="white" transform="translate(72 0.5)"/>
</clipPath>
<clipPath id="clip9_2_621">
<path d="M72 0.5H90V16.5H72V0.5Z" fill="white"/>
</clipPath>
</defs>
</svg>
