<svg width="18" height="17" viewBox="0 0 18 17" fill="none" xmlns="http://www.w3.org/2000/svg">
<g clip-path="url(#clip0_2_718)">
<g clip-path="url(#clip1_2_718)">
<path d="M9.90316 1.0625C9.73753 0.71875 9.38753 0.5 9.00316 0.5C8.61878 0.5 8.2719 0.71875 8.10316 1.0625L6.09378 5.19688L1.60628 5.85938C1.23128 5.91563 0.918781 6.17812 0.803156 6.5375C0.687531 6.89687 0.78128 7.29375 1.05003 7.55937L4.30628 10.7812L3.53753 15.3344C3.47503 15.7094 3.63128 16.0906 3.94066 16.3125C4.25003 16.5344 4.65941 16.5625 4.99691 16.3844L9.00628 14.2437L13.0157 16.3844C13.3532 16.5625 13.7625 16.5375 14.0719 16.3125C14.3813 16.0875 14.5375 15.7094 14.475 15.3344L13.7032 10.7812L16.9594 7.55937C17.2282 7.29375 17.325 6.89687 17.2063 6.5375C17.0875 6.17812 16.7782 5.91563 16.4032 5.85938L11.9125 5.19688L9.90316 1.0625Z" fill="#A3A3A3"/>
</g>
</g>
<defs>
<clipPath id="clip0_2_718">
<rect width="18" height="16" fill="white" transform="translate(0 0.5)"/>
</clipPath>
<clipPath id="clip1_2_718">
<path d="M0 0.5H18V16.5H0V0.5Z" fill="white"/>
</clipPath>
</defs>
</svg>
