<svg width="49" height="49" viewBox="0 0 49 49" fill="none" xmlns="http://www.w3.org/2000/svg">
<mask id="mask0_2_770" style="mask-type:luminance" maskUnits="userSpaceOnUse" x="0" y="0" width="49" height="49">
<path d="M48.3281 0.5H0.328125V48.5H48.3281V0.5Z" fill="white"/>
</mask>
<g mask="url(#mask0_2_770)">
<path d="M36.0529 43.3642C30.5923 59.7129 16.0272 64.7551 8.32629 44.4541C7.26391 41.6633 10.0327 40.6285 11.9703 39.3954C13.2969 38.5532 13.996 37.8266 13.9134 37.0725C13.5281 33.5275 11.8823 23.6523 11.8823 23.6523L11.7171 23.333C11.7171 23.333 11.7556 23.245 11.596 23.3991C11.4309 23.5642 11.0511 25.2817 9.55932 25.2817C8.2107 25.2817 6.85106 24.6817 6.20152 20.5312C5.95381 19.0285 6.08592 15.0872 7.75932 14.3716C8.44739 14.0798 9.08042 13.9752 9.69693 14.3275C10.319 14.6798 8.98134 13.1165 15.8621 7.39176C20.3318 3.65965 27.3942 3.11469 30.2456 3.74772C33.0969 4.38075 35.9428 5.77341 37.2034 8.72937C38.7336 12.3074 35.7777 15.0211 36.4327 23.1789C36.3116 26.1294 36.4767 32.6028 28.363 34.7716C26.8217 35.1844 27.3006 37.4358 29.6125 37.9863C33.3006 39.1422 36.0529 41.9661 36.0529 43.3752" fill="white"/>
<path fill-rule="evenodd" clip-rule="evenodd" d="M36.0529 17.9606L36.0584 17.8835C36.2841 15.8798 36.5098 13.9367 37.5501 12.1918C37.9079 12.434 37.8639 12.7422 37.7538 13.0285C36.6584 15.8468 36.763 18.7753 36.8621 21.7037L36.8841 22.4743C36.9997 26.1294 36.0859 29.4542 33.6529 32.245C32.8052 33.2138 31.6822 33.8854 30.5428 34.4633C29.3648 35.0688 29.1171 35.5698 29.4859 36.8633L29.53 37.0065C29.607 37.2211 29.6841 37.4413 29.4749 37.656C29.2272 37.9092 28.952 37.8376 28.6602 37.7551L28.6272 37.7496C25.898 36.9854 23.3388 35.7095 21.0859 33.9899C20.7556 33.7477 20.4914 33.423 20.2327 33.1037L20.2162 33.0817C20.0786 32.9165 20.0511 32.6523 20.2437 32.5092C20.4254 32.3716 20.563 32.4817 20.7226 32.6083L20.7777 32.6578C21.9796 33.6331 23.4385 34.2392 24.9777 34.4028C25.7153 34.4798 26.4419 34.4523 27.1795 34.4248C27.5868 34.4083 27.9942 34.3918 28.407 34.3973C28.9685 34.3973 29.4364 34.1386 29.8767 33.8909L30.0309 33.8028C31.5611 32.9496 33.0199 31.9973 34.0052 30.4615C34.8914 29.0854 35.4309 27.5881 35.7446 26.0083C36.141 24.0211 36.1079 22.0065 36.0749 19.9643C36.0584 19.3037 36.0474 18.6321 36.0474 17.9606H36.0529ZM8.3428 13.8101C9.5483 13.7165 10.2144 14.4266 10.7813 15.2578C11.4533 16.2734 11.8758 17.4333 12.0144 18.6431C12.0419 18.8468 12.0694 19.0615 11.9483 19.2652C11.7006 19.2982 11.6786 19.1 11.6731 18.9569C11.6455 17.8175 11.1391 16.8266 10.6327 15.8688C10.2694 15.1808 9.74096 14.5147 8.90426 14.3496C7.95748 14.1569 7.08775 15.0101 6.65839 16.122C5.86023 18.1918 5.99784 20.2285 6.73546 22.2321C7.05472 23.1074 7.45656 23.9991 8.26573 24.6101C9.08041 25.2321 10.0657 25.122 10.6657 24.2964L10.7758 24.1587C10.8859 24.0156 10.996 23.878 11.0511 23.7184C11.1666 23.3991 11.3483 23.1019 11.6731 23.1459C12.0474 23.2009 12.1134 23.6028 12.152 23.9165C12.4934 26.8002 12.8972 29.6761 13.363 32.5422L13.6877 34.678C13.8309 35.6193 13.996 36.9734 13.8859 37.5459C13.8788 37.586 13.8733 37.6264 13.8694 37.667C13.8474 37.8211 13.8364 37.9422 13.6382 37.9698C13.3685 38.0138 13.2529 37.8597 13.2144 37.6175C13.0878 36.6817 13.0492 36.3184 12.9942 34.8872C12.9446 33.5 12.6859 32.1349 12.4217 30.7642L12.1465 29.278C11.8602 27.5826 11.5795 25.8652 11.552 23.9386L11.4419 24.1037C11.0235 24.7257 10.6878 25.2321 10.0933 25.4248C9.65195 25.5939 9.16833 25.6184 8.71222 25.4947C8.2561 25.371 7.85108 25.1056 7.55564 24.7367C6.77998 23.8607 6.23509 22.8049 5.97032 21.6652C5.50793 19.7936 5.42537 17.9716 6.01986 16.1276C6.3061 15.2413 7.32445 13.667 8.3428 13.8156V13.8101ZM10.2474 20.8285C10.4896 21.0046 10.7098 21.1587 10.9079 20.5312C10.8474 18.2083 10.0988 16.722 8.93729 16.6615C9.55381 17.4652 10.1483 18.2468 10.2033 19.3312C9.97429 19.2143 9.77334 19.049 9.61436 18.8468C9.50426 18.7257 9.39417 18.6046 9.25656 18.5165L9.09142 18.3844C8.8272 18.1863 8.55748 17.9771 8.1116 18.1367C8.32078 18.456 8.60702 18.6872 8.89876 18.9074C9.22904 19.1661 9.55931 19.4193 9.75748 19.8156C9.17399 20.2395 8.92078 20.7899 9.22353 21.4615C9.48775 22.0395 9.87858 22.5184 10.6492 22.5514C10.6162 22.2046 10.3905 21.9514 10.1648 21.7037C9.88959 21.4065 9.63087 21.1202 9.75197 20.6798C9.92812 20.5973 10.0933 20.7184 10.2474 20.8285Z" fill="black"/>
<path d="M57.2235 72.6101H-9.29388L-8.82049 69.1257C-8.82049 69.1257 -13.092 67.6725 -13.5159 66.8303C-13.9453 65.9881 -8.88654 55.0395 -8.19297 53.311C-7.49388 51.5771 -3.95443 45.4505 -1.85719 44.2835C0.476759 42.9734 8.14465 39.5 8.58501 39.1477C10.0217 37.9917 13.1373 36.7917 13.1373 36.7917V38.4817L22.5722 53.9495L23.1391 56.0303C23.1391 56.0303 28.8419 40.5734 29.3758 37.4358C29.8272 34.7936 35.9703 37.9973 35.9703 37.9973C35.9703 37.9973 42.2511 41.8835 43.8419 43.133C47.0566 45.6762 51.5483 50.7624 53.7887 56.3C55.0657 59.4376 57.7795 65.5587 58.2254 66.2798C58.6713 66.9954 56.7391 68.2615 56.7391 68.2615L57.2235 72.6156V72.6101Z" fill="white"/>
<path fill-rule="evenodd" clip-rule="evenodd" d="M43.6217 43.4909C42.2951 42.3955 40.963 41.3 39.4933 40.4523C39.2731 40.3312 39.0639 40.1991 38.8492 40.067C38.1226 39.6377 37.396 39.1973 36.5703 38.9331C36.4712 39.4945 36.4933 40.034 36.5428 40.5624C36.807 43.1464 36.8088 45.7505 36.5483 48.3349C36.4712 48.9679 36.4878 49.6175 36.5043 50.2615L36.5153 50.9386C36.5153 51.3129 36.4602 51.6872 36.3667 52.0395C36.2345 52.5459 35.9978 52.7716 35.4859 52.8101C35.029 52.8432 34.5722 52.9147 34.1208 52.9863C33.3902 53.1283 32.6465 53.1911 31.9024 53.1734C31.7483 53.1624 31.5942 53.1679 31.5006 53.1734H31.429L31.6217 53.4156C31.7978 53.6358 32.007 53.8945 32.1942 54.1643C32.4969 54.5881 32.563 54.9569 32.2767 55.5349C30.8456 58.4193 28.9189 60.8909 26.8492 63.1477C26.1887 63.8688 25.5611 64.645 24.9391 65.4156C23.9098 66.6982 22.8804 67.9808 21.6474 69.0377C21.0254 69.5716 20.4639 70.1826 19.8969 70.7991C19.3487 71.4202 18.7661 72.0101 18.152 72.5661C17.4199 72.6046 16.7098 72.6046 15.9391 72.6046C16.2914 71.9 16.5777 71.1459 16.8639 70.3918C17.1126 69.7132 17.388 69.0448 17.6896 68.3881C18.2273 67.2268 18.7176 66.0442 19.1593 64.8432C19.4896 63.9624 19.5061 63.0707 18.9281 62.267L18.3006 61.3863C17.1777 59.8175 16.0492 58.2487 14.7667 56.834C14.1832 56.1955 14.0511 55.1826 14.4199 54.2468C14.5134 54.0156 14.596 53.7789 14.6841 53.5367L14.7997 53.2175C14.029 52.8872 13.2584 52.8707 12.4822 52.8487C12.1134 52.8487 11.7501 52.8377 11.3923 52.7936L11.3153 52.7826C10.1263 52.6505 10.1043 52.645 9.68592 51.3404C8.7773 48.5357 8.19366 45.636 7.94647 42.6982C7.89867 41.8771 7.7145 41.0698 7.40151 40.3092C6.14647 40.8211 4.94647 41.3991 3.75197 41.9771L3.69693 41.9991C2.3373 42.6597 0.98867 43.3698 -0.348944 44.0964C-2.3306 45.1863 -3.87738 46.8377 -5.13793 48.8633L-5.16546 48.9074C-6.08472 50.3826 -6.99849 51.8578 -7.71959 53.4762L-9.02968 56.3936L-9.76179 58.0065L-10.3398 59.278C-10.8462 60.3899 -11.3526 61.4964 -11.826 62.6193C-12.2342 63.5672 -12.6087 64.5293 -12.9489 65.5037C-13.1691 66.1477 -12.9544 66.4395 -12.4921 66.6046L-11.6664 66.9349C-10.9023 67.2752 -10.103 67.53 -9.28289 67.6945C-8.18197 67.8707 -7.19115 68.3276 -6.20032 68.7844L-6.12876 68.8175L-6.0517 68.8505C-4.38381 69.6211 -2.74894 70.4633 -1.10858 71.3111C-0.412735 71.6871 0.260023 72.1043 0.906102 72.5606C0.377662 72.6046 -0.150779 72.6156 -0.679219 72.5771C-2.11247 71.7868 -3.60071 71.1006 -5.13243 70.5239C-6.20032 70.0945 -7.26821 69.6652 -8.32509 69.1477C-8.40174 69.5457 -8.48616 69.9421 -8.5783 70.3367C-8.75445 71.1239 -8.91959 71.8505 -8.9416 72.6101H-9.63518C-9.75628 72.2138 -9.66821 71.8395 -9.58564 71.4652L-9.51959 71.1624C-9.40949 70.5404 -9.45353 70.078 -10.1471 69.9459C-11.1655 69.7422 -12.0187 69.1312 -12.8774 68.5202C-12.969 68.4558 -13.0607 68.3916 -13.1526 68.3276C-13.8132 67.8597 -14.0223 66.8854 -13.7691 65.7404C-13.4829 64.4468 -12.9765 63.2633 -12.4645 62.0799L-12.393 61.9147C-11.4957 59.823 -10.5655 57.7588 -9.62968 55.6945L-8.89206 54.0542C-7.47738 50.911 -5.83702 47.889 -3.52509 45.445C-2.36913 44.223 -1.04803 43.3037 0.421699 42.5936C0.851057 42.3899 1.28041 42.1753 1.70977 41.9606C2.81069 41.4101 3.91161 40.8597 5.04005 40.4083C6.10243 39.9899 6.58133 39.4725 7.04372 38.9606C7.53913 38.4266 8.02353 37.8982 9.16849 37.5184L9.93362 37.2542C10.8584 36.9239 11.7832 36.6046 12.763 36.511H12.818C12.8896 36.5055 12.9611 36.5 13.0052 36.456L13.0217 36.4395C13.2419 36.2193 13.4786 35.9991 13.7373 36.3514C13.8486 36.503 13.9132 36.6838 13.923 36.8716C13.9327 37.0594 13.8873 37.246 13.7923 37.4083C13.407 38.0028 13.6162 38.5643 13.8089 39.0817L13.8254 39.1312C14.2878 40.3422 17.1391 45.1588 18.1575 46.5404L18.4878 46.9753C19.6437 48.5166 22.4731 52.2817 23.3263 54.8854C23.6676 54.2193 23.9098 53.5092 24.1465 52.8101L24.4327 51.9844C25.0015 50.4049 25.5374 48.8138 26.04 47.212C26.2437 46.5789 26.4254 45.9459 26.6015 45.3019C26.7501 44.7844 26.8933 44.267 27.0529 43.7606C27.2896 42.9789 27.5373 42.2083 27.785 41.4377L28.2804 39.8854L28.6052 38.8285L28.963 37.645C29.4199 36.2248 29.5355 35.9661 30.8345 36.0101C32.4419 36.0652 34.3355 36.6321 35.4364 37.0945C40.7208 39.3184 49.1153 44.834 53.0345 53.0688C54.2122 55.6059 55.3045 58.1816 56.3098 60.7918C57.2731 63.2138 58.0272 65.1184 58.6547 66.0211C59.1832 66.7918 59.1226 67.2322 58.4345 67.7881C58.3458 67.8604 58.2595 67.9357 58.1758 68.0138C57.9556 68.2175 57.7355 68.4211 57.4492 68.5092C57.141 68.6028 57.0474 68.867 57.0914 69.2248C57.2225 70.3318 57.3418 71.4401 57.4492 72.5496C57.2235 72.6046 57.0089 72.6046 56.7171 72.5551C56.4969 72.0487 56.5079 71.5643 56.519 71.0964V71.0413C56.5465 70.1881 56.3263 69.4065 56.0951 68.5863L55.93 67.9863C55.7483 68.0633 55.5667 68.1349 55.3795 68.201C54.9942 68.3441 54.6254 68.4817 54.2786 68.6854C52.9849 69.4692 51.5717 70.0363 50.0951 70.3643C48.9446 70.6065 48.4162 71.3055 48.5758 72.6101C48.3006 72.6156 48.0199 72.5936 47.7446 72.5441C47.6345 70.2487 49.0217 69.7037 50.8162 68.9991L51.4602 68.7404C54.0694 67.667 57.4052 66.1422 57.4052 66.1422C57.4052 66.1422 54.0419 58.2211 52.8584 55.2321C50.5465 49.3643 44.7336 44.4046 44.541 44.2505L43.6217 43.4964V43.4909ZM26.2712 49.067C25.3974 51.6712 24.4503 54.2502 23.4309 56.801C22.6602 58.7606 21.8235 60.6872 20.9868 62.6083L20.9043 62.8065C20.6015 63.489 20.3208 64.1826 20.04 64.8707C19.6272 65.8725 19.2144 66.8799 18.763 67.8597C18.3942 68.6523 18.0749 69.4725 17.7556 70.2982L17.3153 71.4211L17.2878 71.4872C17.2217 71.6358 17.1556 71.7844 17.3098 71.9276C17.4254 72.0377 17.552 71.9551 17.6511 71.8725C17.7832 71.7624 17.9153 71.6468 18.0364 71.5202L18.752 70.7771L19.7648 69.7312L20.8382 68.6523C21.4217 68.0688 22.0052 67.4909 22.5777 66.8909C22.9905 66.4615 23.3483 65.9716 23.7061 65.4817C24.0914 64.9588 24.4767 64.4358 24.9171 63.9955C26.0946 62.8365 27.177 61.5848 28.1538 60.2523C28.4951 59.7844 28.8529 59.3276 29.2107 58.8707C29.9978 57.8523 30.785 56.834 31.418 55.6725C31.7043 55.1496 31.7703 54.7863 31.2859 54.3624C30.9171 54.0322 30.6089 53.6138 30.3061 53.2065L30.2676 53.1514L30.2456 53.1239C30.0804 52.8927 29.8822 52.6285 30.0694 52.2597C30.4767 52.2046 30.8896 52.1881 31.3024 52.1936C32.4584 52.1936 33.6144 52.1496 34.7703 52.1055L34.974 52.1C35.3703 52.0835 35.629 51.8578 35.6455 51.3624C35.6709 50.729 35.704 50.0959 35.7446 49.4633L35.8272 48.0872C35.9263 46.5184 36.0254 44.9496 35.9648 43.3808C35.9098 42.0432 35.8878 40.7 35.9593 39.3624C35.9978 38.7019 35.7777 38.3936 35.3153 38.1019C34.0162 37.2872 32.5905 37.0945 31.1648 36.8964L30.5263 36.8083C30.163 36.7533 30.0419 36.9955 29.9483 37.2927C29.8602 37.5789 29.7556 37.8652 29.6566 38.1514C29.5024 38.5753 29.3483 39.0046 29.2382 39.4505C29.0566 40.1881 28.7978 40.8927 28.5391 41.5973C28.385 42.0156 28.2309 42.4395 28.0933 42.8633C27.84 43.656 27.6144 44.4597 27.3887 45.2744C27.0639 46.4303 26.7391 47.6138 26.3098 48.7918C26.3052 48.8845 26.2923 48.9766 26.2712 49.067ZM13.0217 39.5991L13.0492 39.6652C13.9575 41.6909 18.3446 48.2854 20.0896 50.7019L20.3373 51.0432C21.2456 52.2707 22.8859 54.4945 22.429 56.3055C21.992 58.1277 21.3647 59.8989 20.5575 61.5899C20.5079 61.6945 20.4749 61.8101 20.4364 61.9257C20.3855 62.171 20.2652 62.3965 20.0896 62.5753C19.374 61.3643 18.5318 60.2633 17.6896 59.1679C17.3098 58.6725 16.93 58.1771 16.5611 57.6707C16.2969 57.3074 15.9997 56.9771 15.7079 56.6413C15.4602 56.3661 15.2125 56.0909 14.9868 55.7936C14.7061 55.4303 14.7336 55.1936 14.9098 54.8964C15.1024 54.5716 15.2235 54.2138 15.3501 53.856L15.4492 53.5588C15.7079 52.8432 15.5318 52.4688 14.8547 52.2542C14.3868 52.111 13.9079 52.1055 13.429 52.1055C13.1208 52.1055 12.8125 52.1055 12.5098 52.0615C12.4767 52.0615 12.4382 52.0615 12.3997 52.0725L12.3226 52.0835C10.7923 52.111 10.6602 51.9734 10.1703 50.3881C9.49046 48.1881 9.03312 45.9254 8.80519 43.634C8.75014 43.1496 8.66207 42.6762 8.57399 42.2028C8.49142 41.7844 8.40885 41.3716 8.35931 40.9477C8.24922 40.078 8.38684 39.7643 9.09142 39.4615C9.89509 39.1147 10.1428 38.7624 10.3685 38.4432C10.6217 38.0854 10.8474 37.7661 11.7887 37.5294H11.7997C12.5318 37.3422 12.5813 37.3257 12.6144 38.212C12.6309 38.7239 12.8345 39.1753 13.0217 39.5936V39.5991Z" fill="black"/>
<path d="M41.9979 6.66513C42.3792 7.51506 42.5796 8.43504 42.5862 9.36658C42.5929 10.2981 42.4056 11.2209 42.0364 12.0761C41.3373 13.7055 40.6437 15.3404 40.0217 17.0027C39.2841 18.9624 39.5979 20.8339 40.5722 22.6725C41.7281 24.8468 43.0382 26.955 43.7758 29.3385C44.4914 31.678 44.7832 34.0449 43.8034 36.3404C42.9667 38.3165 41.9538 40.2211 39.8951 41.2835C38.3025 42.1138 36.4574 42.3199 34.7208 41.8615C32.7391 41.3936 31.2914 40.1385 29.8437 38.8339C29.0061 38.0593 28.1356 37.321 27.2346 36.6211C26.541 36.0927 26.1116 35.3661 25.5612 34.733C25.4731 34.6339 25.4566 34.5183 25.5336 34.4138C25.6052 34.3037 25.7153 34.3147 25.8419 34.3422C28.7098 35.0578 30.5924 33.5716 32.2382 31.5018C33.9281 29.3771 34.9465 26.933 35.6511 24.3514C36.5121 21.3053 36.8618 18.1376 36.6859 14.9771C36.5758 13.3367 36.3336 11.6908 35.8933 10.078C35.4199 8.37155 34.8034 6.76421 33.7905 5.3055C33.4382 4.81009 32.9813 4.41926 32.585 3.89633C31.6305 4.9141 30.5673 5.82413 29.4144 6.61009C27.1096 8.23069 24.609 9.55313 21.9722 10.5459C19.6272 11.4651 17.1281 11.7404 14.7501 12.4945C13.9358 12.745 13.2459 13.2934 12.818 14.0303C12.057 15.2852 11.7846 16.7764 12.0529 18.2193C12.1079 18.5055 12.2125 18.8523 11.8217 18.9018C11.4639 18.9459 11.5355 18.5605 11.4694 18.3238C11.2052 17.3605 11.018 16.3752 10.6437 15.4394C10.2254 14.3936 8.89327 13.6009 7.94648 13.8982C7.657 13.9999 7.39528 14.1679 7.18217 14.3886C6.96906 14.6094 6.81045 14.8768 6.71896 15.1697C6.09882 16.7388 5.87937 18.4377 6.08042 20.1128C6.22905 21.2523 6.85657 22.133 7.4951 23.0193C8.36483 24.2413 8.9263 24.3954 10.3465 23.9826C10.8144 23.8394 11.029 23.5257 11.2437 23.1569C11.3318 22.9972 11.4419 22.8046 11.6621 22.8486C11.8768 22.8816 12.0474 23.0468 12.1024 23.2615C12.5428 25.2651 13.2199 27.2138 13.2859 29.3C13.3795 32.3605 10.6988 35.1514 7.80886 35.2009C5.99235 35.2339 4.23088 34.9807 2.4529 34.7055C1.22237 34.5194 -0.0320635 34.5642 -1.24618 34.8376C-2.56178 35.1294 -3.83334 35.4761 -4.91224 36.3294C-5.20398 36.5605 -5.44068 36.445 -5.63884 36.1092C-6.72875 34.2706 -7.7526 32.4101 -8.31407 30.3294C-9.02967 27.6486 -9.35994 24.9954 -8.59481 22.2321C-8.29205 21.1312 -8.03334 20.0303 -7.52692 19.0064C-6.60214 17.1349 -5.38013 15.5165 -3.64068 14.3275C-1.71407 13.0064 0.223543 11.7073 2.15015 10.3917C3.74648 9.30733 4.95749 7.85963 6.00336 6.2633C7.90244 3.36788 10.0657 0.703663 12.8125 -1.4156C14.7226 -2.90184 16.8034 -4.13487 19.1758 -4.70735C20.8602 -5.12569 22.6107 -5.20276 24.3281 -4.93303C25.6272 -4.73487 26.8878 -4.47065 28.0327 -3.8156C28.7153 -3.42478 29.4199 -3.03946 30.0144 -2.53303C30.685 -2.00444 31.4513 -1.61009 32.2712 -1.37157C34.4731 -0.639456 36.4933 0.395407 38.2933 1.85412C39.8896 3.1477 41.2657 4.62843 41.9979 6.65963V6.66513Z" fill="black"/>
<path d="M29.1721 30.0046C29.4364 29.223 29.3923 29.1129 28.6327 28.9752C28.0712 28.8762 27.5703 28.6285 27.0364 28.4578C26.4364 28.2652 26.0455 27.6982 25.4125 27.5496C25.0822 29.1899 27.2676 30.6597 29.1666 30.0101L29.1721 30.0046Z" fill="white"/>
<path fill-rule="evenodd" clip-rule="evenodd" d="M25.2419 29.7624C25.722 30.2409 26.3104 30.5968 26.9571 30.7999C27.6038 31.0031 28.29 31.0475 28.9575 30.9294L29.3098 30.7918C29.574 30.6872 29.8162 30.5991 30.0364 30.4725C30.3226 30.3074 30.5483 29.9661 30.3006 29.7129C29.7501 29.1459 30.0254 28.8211 30.5208 28.4909C30.741 28.3478 30.8731 28.1496 30.7575 27.9019C30.6089 27.5716 30.3171 27.6927 30.0969 27.7918C29.791 27.9089 29.4667 27.9704 29.1391 27.9734C27.774 28.1276 26.6676 27.478 25.5722 26.845L25.5391 26.8285C24.8896 26.4432 24.4933 26.5753 24.4107 27.3349C24.345 27.7765 24.3861 28.2275 24.5308 28.6499C24.6754 29.0723 24.9193 29.4538 25.2419 29.7624ZM28.6327 28.9753C29.3978 29.1129 29.4364 29.223 29.1667 30.0101C27.2676 30.6597 25.0823 29.1845 25.4125 27.5496C25.7428 27.6322 26.018 27.8248 26.2823 28.023C26.508 28.2098 26.7628 28.3585 27.0364 28.4634C27.218 28.5184 27.3942 28.5845 27.5703 28.6505C27.9171 28.7826 28.2584 28.9147 28.6327 28.9808V28.9753Z" fill="black"/>
<path d="M23.5575 26.4817C24.0088 26.6854 23.9813 26.9936 23.7887 27.3074C23.6455 27.5551 23.4309 27.7037 23.1446 27.5276C22.8804 27.3624 22.941 27.1367 23.0896 26.9221C23.2107 26.7569 23.2547 26.5202 23.5575 26.4817Z" fill="black"/>
<path d="M30.1465 17.8064C29.9164 19.2756 29.9781 20.7758 30.3281 22.2211C30.5868 23.4541 29.4914 25.2156 27.752 24.9569C27.1465 24.8688 26.7887 24.511 26.5795 23.9771C26.4859 23.7404 26.4969 23.4927 26.7612 23.3716C26.9813 23.278 27.1685 23.3606 27.2786 23.5917C27.5428 24.1477 28.0162 24.1092 28.4841 23.9716C29.0125 23.8119 29.3868 23.4431 29.4254 22.8762C29.4639 22.3202 29.4364 21.7587 29.3373 21.2028C29.0223 19.5481 29.1904 17.8377 29.8217 16.2762C29.9428 15.9624 30.119 15.6762 30.4768 15.8193C30.8896 15.9844 30.5758 16.3037 30.5153 16.5404C30.4217 16.9477 30.2841 17.3495 30.1465 17.8064Z" fill="black"/>
<path d="M32.3318 20.6743C33.0474 20.6908 33.73 20.7349 34.4015 20.8119C34.5667 20.834 34.6767 20.9936 34.6767 21.1807C34.6767 21.3624 34.5832 21.489 34.418 21.5661C33.8015 21.8303 33.207 22.0174 32.563 21.5771C32.2052 21.3294 32.0676 21.0982 32.3318 20.6743ZM23.5355 20.3716C23.9208 20.3716 23.9648 20.5807 23.9208 20.8395C23.8107 21.4009 22.8199 22.0725 22.2474 21.9679C21.9226 21.9129 21.6694 21.7477 21.6584 21.3899C21.6474 21.0211 21.9226 20.9385 22.2254 20.9275C22.7208 20.911 23.0951 20.6413 23.5355 20.3771V20.3716ZM21.7465 18.1477C22.0217 17.4872 22.2419 16.5294 23.0731 16.9092C24.2125 17.4266 23.8382 18.5991 23.607 19.5184C23.519 19.8651 22.8089 20.3936 22.5997 20.3055C21.7024 19.9312 21.5428 19.111 21.7465 18.1477ZM34.2364 20.1734C33.763 20.5862 33.3006 20.5918 33.0144 20.0908C32.5189 19.2101 32.541 18.2853 33.196 17.4927C33.3336 17.3275 33.9556 17.2945 34.0933 17.4376C34.8639 18.2633 34.8969 19.1881 34.2364 20.1734Z" fill="black"/>
<path d="M24.5538 15.0211C24.0749 14.355 23.1666 14.1403 22.418 14.333C21.7575 14.5091 21.2235 14.9385 20.5685 15.1257C20.3483 15.1862 20.1556 15.2743 20.0345 15.0101C19.93 14.7954 19.952 14.6027 20.1556 14.4431C21.1905 13.6559 23.1061 12.9624 24.4878 13.733C24.8239 13.9396 25.1068 14.2225 25.3134 14.5587C25.4951 14.8174 25.5611 15.1972 25.3134 15.3899C24.9887 15.6431 24.763 15.3238 24.5538 15.0211ZM34.7868 15.3513C34.2529 14.9935 33.7465 14.9495 33.2455 15.3073C33.0694 15.4339 32.8767 15.5715 32.6951 15.3513C32.5134 15.1257 32.563 14.8779 32.7666 14.6578C33.0749 14.322 33.4933 14.2669 33.9116 14.2174C34.3979 14.1712 34.8829 14.3187 35.2611 14.6279C35.6393 14.9371 35.8803 15.383 35.9318 15.8688C35.9428 16.1055 35.9318 16.3697 35.6455 16.4357C35.3868 16.4908 35.1887 16.3422 35.0841 16.111C34.9795 15.8798 34.9079 15.6321 34.7868 15.3513ZM29.4804 14.3165C29.7666 13.9532 29.9208 13.4908 30.2786 13.1825C30.4162 13.0669 30.5208 12.8798 30.7465 13.0064C30.9501 13.122 30.9667 13.3312 30.9116 13.5018C30.741 13.9752 30.5428 14.4431 30.3226 14.9C30.2125 15.1201 29.9373 15.2027 29.7171 15.1312C29.3538 15.0211 29.4419 14.6963 29.4749 14.366V14.311L29.4804 14.3165Z" fill="black"/>
<path d="M29.4859 14.3055C29.3758 14.5366 29.2878 14.7733 29.1722 14.999C29.0841 15.1697 28.941 15.3183 28.7318 15.2522C28.4786 15.1752 28.4566 14.9605 28.5116 14.7403C28.5777 14.5146 28.6492 14.3 28.7318 14.0798C28.8419 13.8211 28.8144 13.3972 29.2437 13.4578C29.7061 13.5293 29.4859 13.9201 29.4859 14.2504V14.3055Z" fill="black"/>
<path d="M51.7134 72.8797L44.6401 72.9898C44.6401 72.9898 45.0254 70.7109 45.2786 69.9072C45.818 68.1788 44.4859 68.0962 44.2657 66.9348C44.0456 65.7623 44.3978 65.5256 44.5079 64.8816C44.618 64.232 44.0786 64.2981 43.7153 63.9348C43.352 63.566 43.5832 63.4944 43.7593 62.8724C43.9355 62.2504 42.6034 62.5586 41.9043 61.5513C41.2052 60.5494 41.4859 59.5696 41.4859 59.5696C41.4859 59.5696 40.6933 59.4375 40.8254 58.6228C40.9575 57.8082 41.2657 56.7513 42.2566 56.2173C43.2474 55.6889 48.796 55.0063 48.796 55.0063C48.796 55.0063 48.3556 50.2118 48.3171 49.188C48.2841 48.1696 48.6474 45.5329 49.5226 45.4118C50.3923 45.2852 50.8547 48.5054 51.0969 49.9586C51.3391 51.4173 52.9465 56.0687 53.1226 57.4779C53.2988 58.8871 52.8364 63.1421 52.7923 63.8632C52.7483 64.5953 51.8235 66.3348 51.4712 67.3916C51.1189 68.4485 51.7134 72.8797 51.7134 72.8797Z" fill="white"/>
<path d="M44.4419 72.9954C44.3868 72.0321 44.7171 71.1238 44.8712 70.177C44.9868 69.4339 45.0199 68.8449 44.4584 68.1843C44.1218 67.7995 43.9125 67.3199 43.8592 66.8113C43.806 66.3028 43.9115 65.7902 44.1612 65.344C44.3703 64.9366 44.3153 64.6999 43.9135 64.5018C42.9006 63.9954 42.8235 63.6871 43.4235 62.6632C41.8768 62.2999 41.3098 61.6174 41.2327 60.0596C41.2272 59.922 41.2437 59.7293 41.1667 59.6577C39.8621 58.5128 40.9905 57.6045 41.4859 56.6743C41.8547 55.9862 42.5208 55.711 43.319 55.5733C44.7777 55.3311 46.2144 55.0064 47.7061 55.0559C48.0914 55.0669 48.229 54.8687 48.2951 54.5054C48.4492 53.6192 48.3171 52.722 48.2401 51.8467C48.1355 50.5917 47.9483 49.0779 48.0749 47.8009C48.163 46.9972 49.396 45.0486 49.6052 45.0431C50.0841 45.0265 50.3318 45.2247 50.3758 45.7366C50.4034 46.0834 50.7722 48.3458 50.9318 48.9843C51.4272 50.944 52.2694 52.8376 52.941 55.4963C54.5263 61.7385 52.8639 64.3146 51.9557 67.5403C51.4107 69.4669 52.2749 73.0009 52.2749 73.0009C52.2749 73.0009 51.6034 73.0009 51.2125 72.9458C51.0694 71.5146 50.9703 70.144 50.8988 68.7733C50.8547 67.9642 50.8162 67.166 51.2676 66.4064C51.73 65.6247 52.1868 64.81 52.341 63.9018C52.6712 62.0577 52.8969 60.1972 52.7923 58.3091C52.7703 57.8412 52.6382 57.4064 52.5336 56.955C52.352 56.1568 51.9832 55.4302 51.719 54.6761C51.3722 53.7128 51.4767 52.6779 51.0859 51.7421C50.9318 51.3733 50.8768 50.9825 50.7997 50.5917C50.4694 48.9843 50.0786 47.388 49.6988 45.7366C49.4973 45.8444 49.3271 46.0024 49.2046 46.1953C49.0821 46.3881 49.0115 46.6094 48.9997 46.8376C48.9446 47.7073 48.741 48.5605 48.818 49.4302C48.9501 51.0265 48.9777 52.6339 49.2034 54.2247C49.2419 54.555 49.3245 54.8192 49.6217 54.9843C49.8199 55.0944 49.9575 55.2596 49.8804 55.5018C49.7923 55.777 49.5501 55.7275 49.352 55.6724C49.1318 55.6174 48.9391 55.6779 48.73 55.6779C47.4089 55.6889 46.1428 56.0467 44.8327 56.1733C43.4401 56.2999 42.0969 56.6688 41.585 58.2651C41.5245 58.4577 41.3153 58.6614 41.519 58.8265C41.6951 58.9752 41.8823 59.1458 42.207 59.0192C44.2988 58.221 46.4896 58.1109 48.6969 58.166C48.9997 58.1825 49.3024 58.2596 49.5777 58.3972C49.7593 58.4908 49.9079 58.5954 49.8419 58.821C49.7868 59.0137 49.6107 59.0247 49.4345 59.0027C48.0694 58.8541 46.7318 59.1073 45.3832 59.2449C44.4804 59.333 43.5667 59.377 42.7134 59.7403C42.3667 59.8944 42.0804 60.0706 42.0254 60.4614C41.9703 60.8632 42.1245 61.188 42.4382 61.4522C42.6969 61.6724 42.9887 61.6779 43.3024 61.6779H49.4951C49.7758 61.6779 50.0566 61.6999 50.3373 61.733C50.4749 61.744 50.6125 61.8265 50.6235 61.9917C50.6456 62.1458 50.552 62.2504 50.4364 62.344C50.2712 62.4651 50.0841 62.4596 49.8969 62.4816C48.6364 62.6302 47.3703 62.5697 46.1043 62.5697C45.2511 62.5697 44.5079 62.8119 43.9024 63.533C44.7281 63.9458 45.4933 64.3917 46.2969 64.7165C47.1116 65.0412 48.0914 64.5513 48.9501 65.1018C48.0144 65.944 46.7703 65.9385 44.9318 65.1293C44.8217 66.1311 44.4694 67.111 45.3942 67.9366C45.7245 68.2284 45.8345 68.6137 45.8511 69.0651C45.9006 70.4192 45.4492 71.6908 45.229 73.0009H44.4419V72.9954Z" fill="black"/>
</g>
</svg>
